<svg aria-hidden="true" style="position: absolute; width: 0; height: 0; overflow: hidden;" version="1.1" xmlns="http://www.w3.org/2000/svg" xmlns:xlink="http://www.w3.org/1999/xlink">
<defs>
<symbol id="icon_Ellipse_1" viewBox="0 0 32 32">
<path fill="#c5baff" style="fill: var(--color1, #c5baff)" d="M25.331 31.105c-4.559 7.755-13.906 9.52-22.12 7.434-9.465-2.869-13.336-12.909-10.633-21.826 2.507-8.272 12.355-6.005 20.509-6.947 15.101-1.621 20.97 7.624 12.244 21.339z"></path>
</symbol>
<symbol id="icon-Ellipse-2" viewBox="0 0 32 32">
<path fill="#ffd8d0" style="fill: var(--color2, #ffd8d0)" d="M32.005 17.178c-4.403 6.166-12.376 6.949-19.11 4.586-7.726-3.113-10.224-11.824-7.292-19.102 2.72-6.752 10.812-4.116 17.723-4.298 12.789-0.234 17.022 7.96 8.679 18.814z"></path>
</symbol>
<symbol id="icon-Frame" viewBox="0 0 32 32">
<path fill="#24cca7" style="fill: var(--color3, #24cca7)" d="M28.574 1.413h-2.395c-0.78 0-1.413 0.633-1.413 1.413v2.395c0 0.78 0.633 1.413 1.413 1.413h2.395c0.78 0 1.413-0.633 1.413-1.413v-2.395c0-0.78-0.633-1.413-1.413-1.413z"></path>
<path fill="#fff" style="fill: var(--color4, #fff)" d="M27.458 2.253c0.099 0 0.177 0.078 0.177 0.177v0.092c0.24 0.028 0.452 0.106 0.643 0.226 0.064 0.035 0.127 0.099 0.127 0.198 0 0.127-0.106 0.226-0.233 0.226-0.042 0-0.085-0.014-0.127-0.035-0.141-0.085-0.283-0.148-0.424-0.184v0.791c0.629 0.155 0.897 0.41 0.897 0.848 0 0.452-0.353 0.756-0.876 0.805v0.247c0 0.099-0.078 0.177-0.177 0.177s-0.184-0.078-0.184-0.177v-0.254c-0.311-0.035-0.593-0.141-0.848-0.325-0.071-0.042-0.113-0.113-0.113-0.198 0-0.127 0.099-0.226 0.226-0.226 0.049 0 0.099 0.014 0.134 0.042 0.191 0.141 0.381 0.233 0.608 0.276v-0.805c-0.6-0.155-0.883-0.381-0.883-0.848 0-0.445 0.353-0.749 0.869-0.791v-0.085c0.007-0.099 0.085-0.177 0.184-0.177zM27.295 3.659v-0.735c-0.261 0.028-0.396 0.162-0.396 0.346 0 0.177 0.078 0.283 0.396 0.389zM27.62 4.231v0.749c0.261-0.028 0.41-0.162 0.41-0.36 0-0.177-0.092-0.29-0.41-0.389z"></path>
<path fill="#ffd8d0" style="fill: var(--color2, #ffd8d0)" d="M6.64 19.179c0.035-0.883 0.021-1.766-0.035-2.649-0.12-1.815-0.417-3.624-0.827-5.397-0.233-0.996-0.516-1.978-0.812-2.96-0.007-0.028-0.056-0.021-0.049 0.007 0.918 3.454 1.667 7.022 1.618 10.61-0.014 1.003-0.134 1.992-0.226 2.988 0 0.028 0.042 0.035 0.049 0.007 0.191-0.834 0.247-1.731 0.283-2.607z"></path>
<path fill="#ffd8d0" style="fill: var(--color2, #ffd8d0)" d="M4.917 8.187c0 0-1.392 3.532-1.081 4.358s0.954 1.003 0.954 1.003c0 0-0.848 1.215-0.254 2.352s1.914 1.088 2.006 2.374c-0.007 0.007 0.071-5.39-1.625-10.087z"></path>
<path fill="#263238" style="fill: var(--color5, #263238)" d="M6.386 16.056c0-0.007 0-0.014 0-0.021-0.198-2.402-0.622-4.789-1.349-7.099 0-0.007-0.014-0.007-0.014 0 0.276 1.031 0.523 2.070 0.728 3.115-0.184-0.184-0.417-0.29-0.664-0.367-0.007 0-0.007 0.007 0 0.007 0.254 0.113 0.502 0.24 0.685 0.459 0.042 0.205 0.078 0.41 0.12 0.615-0.311-0.346-0.742-0.523-1.173-0.685-0.007 0-0.007 0.007 0 0.007 0.452 0.184 0.897 0.417 1.201 0.805 0.106 0.586 0.198 1.173 0.283 1.766-0.226-0.24-0.509-0.396-0.827-0.473-0.007 0-0.014 0.014-0.007 0.014 0.332 0.092 0.615 0.283 0.841 0.537 0 0 0 0 0.007 0.007 0.028 0.205 0.056 0.417 0.078 0.622-0.177-0.148-0.367-0.261-0.579-0.353-0.007 0-0.007 0.007 0 0.007 0.219 0.092 0.41 0.226 0.579 0.389h0.007c0.021 0.198 0.049 0.396 0.064 0.593-0.318-0.381-0.713-0.664-1.18-0.841-0.007 0-0.014 0.007-0.007 0.014 0.452 0.198 0.855 0.509 1.159 0.897 0.007 0.007 0.021 0.014 0.028 0.007 0.028 0.304 0.056 0.608 0.078 0.911 0 0.007 0.007 0.007 0.007 0-0.014-0.311-0.035-0.622-0.064-0.932z"></path>
<path fill="#ffd8d0" style="fill: var(--color2, #ffd8d0)" d="M10.299 12.602c-0.579 0.41-1.137 0.876-1.611 1.406-0.502 0.565-0.869 1.201-1.13 1.914-0.523 1.455-0.812 3.030-0.841 4.577-0.014 0.869 0.064 1.724 0.247 2.571 0.007 0.028 0.049 0.021 0.049-0.007-0.226-1.491-0.219-3.009 0.028-4.5 0.24-1.462 0.615-3.045 1.54-4.231 0.509-0.643 1.137-1.151 1.759-1.681 0.035-0.028-0.007-0.071-0.042-0.049z"></path>
<path fill="#ffd8d0" style="fill: var(--color2, #ffd8d0)" d="M6.923 19.447c0 0 0.48-0.805 1.173-1.498s1.279-1.187 1.37-1.646c0.092-0.459-0.699-0.798-0.699-0.798s0.961 0.17 1.229-0.233c0.261-0.403 0.389-2.741 0.389-2.741s-1.752 1.25-2.564 3.002c-0.812 1.752-0.897 3.913-0.897 3.913z"></path>
<path fill="#263238" style="fill: var(--color5, #263238)" d="M9.784 13.132c-0.735 0.721-1.476 1.498-1.914 2.444-0.148 0.325-0.276 0.664-0.389 1.010-0.021 0.071-0.042 0.141-0.064 0.205 0 0 0 0.007-0.007 0.014-0.212 0.706-0.367 1.441-0.494 2.162 0 0.007 0.007 0.007 0.007 0 0.078-0.367 0.155-0.735 0.254-1.102h0.007c0.148-0.064 0.297-0.099 0.459-0.12 0.007 0 0.007-0.021 0-0.021-0.155 0.007-0.304 0.035-0.452 0.085 0.085-0.332 0.177-0.664 0.283-0.989 0.339-0.085 0.692-0.127 1.038-0.134 0.007 0 0.007-0.007 0-0.007-0.353-0.014-0.678 0.014-1.024 0.085 0.021-0.056 0.035-0.113 0.056-0.17 0.226-0.049 0.459-0.099 0.692-0.12 0.007 0 0.007-0.007 0-0.007-0.226 0.007-0.452 0.028-0.678 0.085 0.092-0.283 0.198-0.558 0.311-0.834 0.092-0.226 0.205-0.438 0.332-0.643 0.184-0.042 0.367-0.085 0.558-0.099 0.007 0 0.007-0.007 0-0.007-0.177-0.014-0.353 0-0.523 0.049 0.092-0.148 0.191-0.297 0.29-0.438 0.396-0.085 0.791-0.17 1.194-0.092 0.007 0 0.007-0.007 0-0.014-0.381-0.099-0.763-0.042-1.144 0.035 0.042-0.056 0.085-0.113 0.127-0.162 0.24-0.078 0.48-0.113 0.735-0.113 0.007 0 0.007-0.007 0-0.007-0.233-0.021-0.459 0-0.685 0.064 0.325-0.403 0.685-0.784 1.038-1.159 0.021-0.007 0.007-0.021-0.007 0z"></path>
<path fill="#ffd8d0" style="fill: var(--color2, #ffd8d0)" d="M1.794 15.089c0.565 0.198 1.123 0.445 1.625 0.763 0.537 0.339 0.982 0.77 1.356 1.286 0.763 1.053 1.356 2.268 1.738 3.511 0.212 0.699 0.346 1.413 0.396 2.14 0 0.028-0.035 0.028-0.042 0.007-0.162-1.257-0.523-2.487-1.060-3.638-0.53-1.123-1.201-2.324-2.225-3.073-0.558-0.403-1.187-0.671-1.808-0.954-0.035-0.007-0.014-0.056 0.021-0.042z"></path>
<path fill="#ffd8d0" style="fill: var(--color2, #ffd8d0)" d="M6.103 19.85c0 0-0.572-0.537-1.293-0.939s-1.314-0.664-1.49-1.017c-0.177-0.353 0.381-0.805 0.381-0.805s-0.742 0.36-1.045 0.099c-0.304-0.268-0.947-2.126-0.947-2.126s1.702 0.607 2.769 1.837c1.060 1.215 1.625 2.953 1.625 2.953z"></path>
<path fill="#263238" style="fill: var(--color5, #263238)" d="M6.019 19.461c-0.855-1.604-1.992-3.052-3.553-4.005 0.41 0.261 0.791 0.565 1.144 0.89-0.318-0.007-0.636 0.042-0.918 0.191-0.007 0 0 0.014 0.007 0.007 0.311-0.106 0.615-0.177 0.947-0.162 0.007 0 0.007 0 0.014-0.007 0.057 0.049 0.113 0.106 0.162 0.162-0.162 0.007-0.332 0.028-0.487 0.064-0.007 0 0 0.007 0 0.007 0.177-0.035 0.339-0.042 0.516-0.042 0.283 0.29 0.551 0.593 0.805 0.911-0.113-0.014-0.233-0.007-0.346 0.028-0.007 0-0.007 0.014 0 0.014 0.127-0.014 0.24-0.014 0.367-0.007 0.049 0.056 0.092 0.12 0.141 0.177-0.353-0.021-0.692 0.014-1.038 0.099-0.007 0-0.007 0.007 0 0.007 0.353-0.071 0.706-0.092 1.067-0.071 0.042 0.056 0.085 0.12 0.127 0.177-0.212-0.007-0.41 0.021-0.615 0.071-0.007 0-0.007 0.014 0 0.014 0.212-0.049 0.424-0.056 0.636-0.049 0.184 0.254 0.36 0.509 0.53 0.77-0.092-0.021-0.184-0.007-0.268 0.014-0.007 0 0 0.007 0 0.007 0.099-0.014 0.191 0 0.29 0.014 0.155 0.233 0.297 0.473 0.438 0.713 0.014 0.042 0.042 0.028 0.035 0.007z"></path>
<path fill="#455a64" style="fill: var(--color6, #455a64)" d="M8.307 25.169h-3.85l0.544-4.019 0.141-1.031h2.472l0.141 1.031 0.551 4.019z"></path>
<path fill="#263238" style="fill: var(--color5, #263238)" d="M23.043 3.016v22.746c0 0.671-0.537 1.215-1.194 1.215h-11.762c-0.657 0-1.194-0.544-1.194-1.215v-22.746c0-0.671 0.537-1.215 1.194-1.215h11.769c0.65 0.007 1.187 0.551 1.187 1.215z"></path>
<path fill="#fff" style="fill: var(--color4, #fff)" d="M22.301 4.161v20.86c0 0.636-0.48 1.151-1.067 1.151h-10.525c-0.593 0-1.067-0.516-1.067-1.151v-20.86c0-1.3 0.48-1.589 1.067-1.589h2.105c0.12 0 0.219 0.141 0.219 0.311v0.078c0 0.403 0.219 0.41 0.494 0.41h4.874c0.276 0 0.494 0 0.494-0.41v-0.078c0-0.17 0.099-0.311 0.219-0.311h2.112c0.593 0.007 1.074 0.403 1.074 1.589z"></path>
<path fill="#fff" style="fill: var(--color4, #fff)" d="M16.636 2.861h-1.328c-0.042 0-0.085-0.035-0.085-0.085 0-0.042 0.035-0.085 0.085-0.085h1.328c0.042 0 0.085 0.035 0.085 0.085-0.007 0.049-0.042 0.085-0.085 0.085z"></path>
<path fill="#4a56e2" style="fill: var(--color7, #4a56e2)" d="M21.001 11.853l0.014 5.644c0 0.318-0.254 0.572-0.572 0.572l-8.95 0.021c-0.318 0-0.572-0.254-0.572-0.572l-0.014-5.644c0-0.297 0.233-0.53 0.53-0.53l9.028-0.021c0.297 0 0.537 0.24 0.537 0.53z"></path>
<path fill="#ffc727" style="fill: var(--color8, #ffc727)" d="M13.358 13.627h-1.3c-0.162 0-0.297-0.134-0.297-0.297v-0.713c0-0.162 0.134-0.297 0.297-0.297h1.3c0.162 0 0.297 0.134 0.297 0.297v0.713c0 0.162-0.134 0.29-0.297 0.297z"></path>
<path fill="#fff" style="fill: var(--color4, #fff)" d="M19.836 13.012h-0.855c-0.198 0-0.36-0.162-0.36-0.36s0.162-0.36 0.36-0.36h0.855c0.198 0 0.36 0.162 0.36 0.36 0 0.205-0.155 0.36-0.36 0.36z"></path>
<path fill="#f8f8f8" style="fill: var(--color9, #f8f8f8)" d="M11.698 14.82l-0.078 0.042h-0.007c-0.007 0-0.014-0.007-0.014-0.007-0.007-0.007 0-0.021 0.007-0.028l0.106-0.064c0.007-0.007 0.021 0 0.028 0.007 0 0.007 0 0.007 0 0.014v0.502c0 0.007-0.007 0.021-0.021 0.021-0.007 0-0.021-0.007-0.021-0.021v-0.466z"></path>
<path fill="#f8f8f8" style="fill: var(--color9, #f8f8f8)" d="M11.868 15.279l0.254-0.233c0.028-0.028 0.049-0.064 0.049-0.106 0-0.035-0.014-0.071-0.035-0.092-0.028-0.028-0.064-0.049-0.106-0.049-0.035 0-0.071 0.014-0.099 0.035l-0.028 0.021c-0.007 0.007-0.021 0.007-0.028 0s-0.007-0.021 0-0.028l0.028-0.028c0.035-0.028 0.078-0.049 0.12-0.049 0.049 0 0.099 0.021 0.134 0.056s0.049 0.078 0.049 0.12c0 0.049-0.021 0.099-0.056 0.134l-0.219 0.198h0.261c0.007 0 0.021 0.007 0.021 0.021 0 0.007-0.007 0.021-0.021 0.021h-0.304c-0.007 0-0.014 0-0.014-0.007-0.014 0.007-0.014-0.007-0.007-0.014z"></path>
<path fill="#f8f8f8" style="fill: var(--color9, #f8f8f8)" d="M12.666 14.799l-0.141 0.148c0.035 0.007 0.071 0.021 0.092 0.049 0.035 0.035 0.056 0.085 0.056 0.134s-0.021 0.099-0.056 0.134c-0.035 0.035-0.085 0.056-0.134 0.056s-0.092-0.021-0.134-0.056c-0.007-0.007-0.007-0.021 0-0.028s0.021-0.007 0.028 0c0.028 0.028 0.064 0.042 0.106 0.042 0.035 0 0.078-0.014 0.106-0.042s0.042-0.064 0.042-0.106c0-0.035-0.014-0.078-0.042-0.106s-0.064-0.042-0.106-0.042c-0.007 0-0.014 0-0.014-0.007-0.007-0.007-0.007-0.021 0-0.028l0.134-0.141h-0.212c-0.014 0-0.021-0.007-0.021-0.021s0.007-0.021 0.021-0.021h0.254c0.014 0 0.021 0.007 0.021 0.021 0.007 0 0 0.007 0 0.014 0-0.007 0 0 0 0z"></path>
<path fill="#f8f8f8" style="fill: var(--color9, #f8f8f8)" d="M13.125 15.202h-0.297c-0.007 0-0.007 0-0.014-0.007s-0.007-0.021 0-0.028l0.318-0.396c0.007-0.007 0.021-0.007 0.028 0l0.007 0.007v0.374h0.035c0.014 0 0.021 0.007 0.021 0.021 0 0.007-0.007 0.021-0.021 0.021h-0.035v0.092c0 0.007-0.007 0.021-0.021 0.021-0.007 0-0.021-0.007-0.021-0.021v-0.085zM13.125 15.159v-0.325l-0.261 0.325h0.261z"></path>
<path fill="#f8f8f8" style="fill: var(--color9, #f8f8f8)" d="M13.817 15.258c-0.007-0.007-0.007-0.021 0-0.028s0.021-0.007 0.028 0c0.028 0.028 0.064 0.042 0.106 0.042 0.035 0 0.078-0.014 0.106-0.042s0.042-0.064 0.042-0.106c0-0.035-0.014-0.078-0.042-0.106s-0.064-0.042-0.106-0.042c-0.035 0-0.078 0.014-0.106 0.042-0.007 0.007-0.021 0.007-0.028 0l-0.007-0.007v-0.007c0 0 0 0 0-0.007l0.028-0.219c0-0.007 0-0.014 0.007-0.014 0 0 0.007-0.007 0.014-0.007h0.254c0.014 0 0.021 0.007 0.021 0.021s-0.007 0.021-0.021 0.021h-0.24l-0.021 0.162c0.028-0.014 0.064-0.028 0.092-0.028 0.049 0 0.092 0.014 0.134 0.056 0.035 0.035 0.056 0.085 0.056 0.134s-0.014 0.099-0.056 0.134c-0.035 0.035-0.085 0.056-0.134 0.056-0.042-0.007-0.092-0.021-0.127-0.056z"></path>
<path fill="#f8f8f8" style="fill: var(--color9, #f8f8f8)" d="M14.34 14.877c0.035-0.064 0.099-0.113 0.191-0.12 0.007 0 0.021 0.007 0.021 0.021s-0.007 0.021-0.021 0.021c-0.078 0-0.127 0.042-0.162 0.099-0.021 0.035-0.028 0.071-0.042 0.113 0.035-0.035 0.085-0.064 0.134-0.064 0.099 0 0.184 0.078 0.184 0.184 0 0.099-0.078 0.184-0.184 0.184-0.099 0-0.177-0.078-0.184-0.177 0-0.014 0-0.021 0-0.035 0.007-0.078 0.021-0.155 0.064-0.226zM14.326 15.131c0 0.007 0 0.007 0 0.007v0.007c0.007 0.071 0.071 0.127 0.141 0.127 0.078 0 0.141-0.064 0.141-0.141s-0.064-0.141-0.148-0.141c-0.071-0.007-0.134 0.056-0.134 0.141z"></path>
<path fill="#f8f8f8" style="fill: var(--color9, #f8f8f8)" d="M14.849 15.279l0.205-0.48h-0.268c-0.007 0-0.021-0.007-0.021-0.021 0-0.007 0.007-0.021 0.021-0.021h0.29c0.007 0 0.007 0 0.014 0s0.007 0.007 0.007 0.014v0.007c0 0.007 0 0.007 0 0.007l-0.212 0.509c0 0.007-0.007 0.014-0.014 0.014h-0.007c-0.014-0.007-0.014-0.021-0.014-0.028z"></path>
<path fill="#f8f8f8" style="fill: var(--color9, #f8f8f8)" d="M15.393 14.757c0.064 0 0.113 0.049 0.113 0.113 0 0.035-0.021 0.071-0.049 0.092 0.064 0.028 0.113 0.092 0.113 0.162 0 0.099-0.078 0.177-0.177 0.177s-0.177-0.078-0.177-0.177c0-0.071 0.042-0.141 0.113-0.162-0.028-0.021-0.042-0.056-0.042-0.092-0.007-0.064 0.042-0.113 0.106-0.113zM15.393 15.265c0.078 0 0.141-0.064 0.141-0.141s-0.064-0.141-0.141-0.141c-0.078 0-0.141 0.064-0.141 0.141 0 0.085 0.064 0.141 0.141 0.141zM15.393 14.947c0.042 0 0.078-0.035 0.078-0.078s-0.035-0.078-0.078-0.078c-0.042 0-0.078 0.035-0.078 0.078s0.035 0.078 0.078 0.078z"></path>
<path fill="#f8f8f8" style="fill: var(--color9, #f8f8f8)" d="M16.367 14.757c0.092 0 0.17 0.071 0.184 0.162 0 0 0 0 0 0.007 0 0.014 0 0.028 0 0.049 0 0.071-0.014 0.155-0.049 0.219s-0.099 0.113-0.191 0.12c-0.014 0-0.021-0.007-0.021-0.021s0.007-0.021 0.021-0.021c0.078 0 0.127-0.042 0.162-0.099 0.021-0.035 0.035-0.071 0.042-0.113-0.035 0.035-0.085 0.064-0.134 0.064-0.099 0-0.184-0.078-0.184-0.184-0.007-0.106 0.071-0.184 0.17-0.184zM16.516 14.933c0-0.078-0.064-0.141-0.141-0.141s-0.141 0.064-0.141 0.141c0 0.078 0.064 0.141 0.141 0.141s0.141-0.064 0.141-0.141z"></path>
<path fill="#f8f8f8" style="fill: var(--color9, #f8f8f8)" d="M16.692 15.025c0-0.071 0.021-0.141 0.049-0.191 0.035-0.049 0.085-0.085 0.134-0.085 0.056 0 0.106 0.035 0.134 0.085 0.035 0.049 0.056 0.12 0.056 0.191s-0.021 0.141-0.049 0.191c-0.035 0.049-0.085 0.085-0.134 0.085-0.056 0-0.106-0.035-0.134-0.085-0.035-0.049-0.056-0.113-0.056-0.191zM16.728 15.025c0 0.071 0.021 0.127 0.049 0.17s0.064 0.064 0.106 0.064c0.042 0 0.078-0.021 0.106-0.064s0.049-0.106 0.049-0.17c0-0.071-0.021-0.127-0.049-0.17s-0.064-0.064-0.106-0.064c-0.042 0-0.078 0.021-0.106 0.064s-0.049 0.106-0.049 0.17z"></path>
<path fill="#f8f8f8" style="fill: var(--color9, #f8f8f8)" d="M17.328 14.806l-0.078 0.042h-0.007c-0.007 0-0.014-0.007-0.014-0.007-0.007-0.007 0-0.021 0.007-0.028l0.106-0.064c0.007-0.007 0.021 0 0.028 0.007 0 0.007 0 0.007 0 0.014v0.502c0 0.007-0.007 0.021-0.021 0.021-0.007 0-0.021-0.007-0.021-0.021v-0.466z"></path>
<path fill="#f8f8f8" style="fill: var(--color9, #f8f8f8)" d="M17.498 15.265l0.254-0.233c0.028-0.028 0.049-0.064 0.049-0.106 0-0.035-0.014-0.071-0.035-0.092-0.028-0.028-0.064-0.049-0.106-0.049-0.035 0-0.071 0.014-0.099 0.035l-0.028 0.021c-0.007 0.007-0.021 0.007-0.028 0s-0.007-0.021 0-0.028l0.028-0.028c0.035-0.028 0.078-0.049 0.12-0.049 0.049 0 0.099 0.021 0.134 0.056s0.049 0.078 0.049 0.12c0 0.049-0.021 0.099-0.056 0.134l-0.219 0.198h0.261c0.007 0 0.021 0.007 0.021 0.021 0 0.007-0.007 0.021-0.021 0.021h-0.304c-0.007 0-0.014 0-0.014-0.007-0.014 0.007-0.014-0.007-0.007-0.014z"></path>
<path fill="#f8f8f8" style="fill: var(--color9, #f8f8f8)" d="M18.762 14.785l-0.141 0.148c0.035 0.007 0.071 0.021 0.092 0.049 0.035 0.035 0.056 0.085 0.056 0.134s-0.021 0.099-0.056 0.134c-0.035 0.035-0.085 0.056-0.134 0.056s-0.092-0.021-0.134-0.056c-0.007-0.007-0.007-0.021 0-0.028s0.021-0.007 0.028 0c0.028 0.028 0.064 0.042 0.106 0.042 0.035 0 0.078-0.014 0.106-0.042s0.042-0.064 0.042-0.106c0-0.035-0.014-0.078-0.042-0.106s-0.064-0.042-0.106-0.042c-0.007 0-0.014 0-0.014-0.007-0.007-0.007-0.007-0.021 0-0.028l0.134-0.141h-0.212c-0.014 0-0.021-0.007-0.021-0.021s0.007-0.021 0.021-0.021h0.254c0.014 0 0.021 0.007 0.021 0.021 0.007 0 0.007 0 0 0.014 0.007-0.007 0.007-0.007 0 0z"></path>
<path fill="#f8f8f8" style="fill: var(--color9, #f8f8f8)" d="M19.228 15.181h-0.297c-0.007 0-0.007 0-0.014-0.007s-0.007-0.021 0-0.028l0.318-0.396c0.007-0.007 0.021-0.007 0.028 0l0.007 0.007v0.374h0.035c0.014 0 0.021 0.007 0.021 0.021 0 0.007-0.007 0.021-0.021 0.021h-0.035v0.092c0 0.007-0.007 0.021-0.021 0.021-0.007 0-0.021-0.007-0.021-0.021v-0.085zM19.228 15.145v-0.325l-0.261 0.325h0.261z"></path>
<path fill="#f8f8f8" style="fill: var(--color9, #f8f8f8)" d="M19.447 15.244c-0.007-0.007-0.007-0.021 0-0.028s0.021-0.007 0.028 0c0.028 0.028 0.064 0.042 0.106 0.042 0.035 0 0.078-0.014 0.106-0.042s0.042-0.064 0.042-0.106c0-0.035-0.014-0.078-0.042-0.106s-0.064-0.042-0.106-0.042c-0.035 0-0.078 0.014-0.106 0.042-0.007 0.007-0.021 0.007-0.028 0l-0.007-0.007v-0.007c0 0 0 0 0-0.007l0.028-0.219c0-0.007 0-0.014 0.007-0.014 0 0 0.007-0.007 0.014-0.007h0.254c0.014 0 0.021 0.007 0.021 0.021s-0.007 0.021-0.021 0.021h-0.24l-0.021 0.162c0.028-0.014 0.064-0.028 0.092-0.028 0.049 0 0.092 0.014 0.134 0.056 0.035 0.035 0.056 0.085 0.056 0.134s-0.014 0.099-0.056 0.134c-0.035 0.035-0.085 0.056-0.134 0.056-0.042-0.007-0.092-0.021-0.127-0.056z"></path>
<path fill="#f8f8f8" style="fill: var(--color9, #f8f8f8)" d="M19.97 14.863c0.035-0.064 0.099-0.113 0.191-0.12 0.007 0 0.021 0.007 0.021 0.021s-0.007 0.021-0.021 0.021c-0.078 0-0.127 0.042-0.162 0.099-0.021 0.035-0.028 0.071-0.042 0.113 0.035-0.035 0.085-0.064 0.134-0.064 0.099 0 0.184 0.078 0.184 0.184 0 0.099-0.078 0.184-0.184 0.184-0.099 0-0.177-0.078-0.184-0.177 0-0.014 0-0.021 0-0.035 0.007-0.078 0.021-0.162 0.064-0.226zM19.956 15.117c0 0.007 0 0.007 0 0.007v0.007c0.007 0.071 0.071 0.127 0.141 0.127 0.078 0 0.141-0.064 0.141-0.141s-0.064-0.141-0.148-0.141c-0.071-0.007-0.134 0.056-0.134 0.141z"></path>
<path fill="#263238" style="fill: var(--color5, #263238)" d="M10.985 10.2c0-0.007 0.007-0.021 0.021-0.021h0.141c0.078 0 0.148 0.064 0.148 0.148 0 0.078-0.064 0.148-0.148 0.148h-0.127v0.205c0 0.007-0.007 0.021-0.021 0.021-0.007 0-0.021-0.007-0.021-0.021v-0.48h0.007zM11.147 10.448c0.064 0 0.113-0.049 0.113-0.113s-0.049-0.113-0.113-0.113h-0.127v0.226h0.127z"></path>
<path fill="#263238" style="fill: var(--color5, #263238)" d="M11.712 10.356v0.325c0 0.007-0.007 0.021-0.021 0.021-0.007 0-0.021-0.007-0.021-0.021v-0.056c-0.028 0.042-0.078 0.071-0.134 0.071-0.092 0-0.17-0.085-0.17-0.184s0.078-0.184 0.17-0.184c0.056 0 0.106 0.028 0.134 0.071v-0.056c0-0.007 0.007-0.021 0.021-0.021 0.014 0.021 0.021 0.028 0.021 0.035zM11.677 10.518c0-0.078-0.064-0.148-0.134-0.148s-0.134 0.064-0.134 0.148c0 0.078 0.064 0.148 0.134 0.148s0.134-0.064 0.134-0.148z"></path>
<path fill="#263238" style="fill: var(--color5, #263238)" d="M11.861 10.356c0-0.007 0.007-0.014 0.014-0.014s0.021 0.007 0.021 0.014v0.198c0 0.064 0.049 0.113 0.113 0.113s0.113-0.049 0.113-0.113v-0.205l0.007-0.007c0 0 0.007 0 0.007 0.007l0.007 0.007v0.325c0 0.092-0.078 0.17-0.17 0.17-0.028 0-0.049-0.007-0.078-0.014-0.007-0.007-0.014-0.014-0.007-0.021s0.014-0.014 0.021-0.007c0.021 0.007 0.035 0.014 0.056 0.014 0.078 0 0.134-0.056 0.134-0.134v-0.021c-0.028 0.028-0.064 0.049-0.113 0.049-0.078 0-0.148-0.064-0.148-0.148v-0.212h0.021z"></path>
<path fill="#263238" style="fill: var(--color5, #263238)" d="M12.835 10.49c0-0.064-0.049-0.113-0.113-0.113s-0.113 0.049-0.113 0.113v0.198c0 0.007-0.007 0.007-0.007 0.007h-0.007c0 0 0 0-0.007 0v-0.198c0-0.064-0.049-0.113-0.113-0.113s-0.113 0.049-0.113 0.113v0.198c0 0.007 0 0.014-0.007 0.014 0 0 0 0-0.007 0s-0.014-0.007-0.014-0.014v-0.339c0-0.007 0.007-0.014 0.014-0.014s0.021 0.007 0.021 0.014v0.035c0.028-0.028 0.064-0.049 0.113-0.049 0.056 0 0.106 0.028 0.127 0.078 0.028-0.042 0.078-0.078 0.127-0.078 0.078 0 0.148 0.064 0.148 0.148v0.198c0 0.007-0.007 0.014-0.021 0.014-0.007 0-0.014-0.007-0.014-0.014v-0.198h-0.014z"></path>
<path fill="#263238" style="fill: var(--color5, #263238)" d="M12.998 10.525c0-0.099 0.078-0.184 0.177-0.184 0.092 0 0.17 0.071 0.177 0.17 0 0.007-0.007 0.014-0.021 0.014h-0.297c0.007 0.078 0.064 0.141 0.141 0.141 0.049 0 0.092-0.028 0.113-0.064 0.007-0.007 0.014-0.007 0.021-0.007 0.007 0.007 0.014 0.014 0.007 0.028-0.028 0.049-0.085 0.085-0.148 0.085-0.092-0.007-0.17-0.085-0.17-0.184zM13.033 10.49h0.275c-0.014-0.071-0.071-0.12-0.134-0.12-0.071 0.007-0.127 0.056-0.141 0.12z"></path>
<path fill="#263238" style="fill: var(--color5, #263238)" d="M13.732 10.49c0-0.064-0.049-0.113-0.113-0.113s-0.113 0.049-0.113 0.113v0.198c0 0 0 0.007-0.007 0.007 0 0.007-0.007 0.007-0.014 0.007h-0.007c-0.007 0-0.007-0.007-0.014-0.007v-0.332c0-0.007 0.007-0.021 0.021-0.021 0.007 0 0.014 0.007 0.014 0.021v0.035c0.028-0.028 0.064-0.049 0.113-0.049 0.078 0 0.148 0.064 0.148 0.148v0.198c0 0.007-0.007 0.021-0.021 0.021-0.007 0-0.021-0.007-0.021-0.021v-0.205h0.014z"></path>
<path fill="#263238" style="fill: var(--color5, #263238)" d="M14.050 10.356c0 0.007-0.007 0.021-0.021 0.021h-0.042v0.261c0 0.021 0.021 0.028 0.028 0.028s0.021 0.007 0.021 0.021c0 0.007-0.007 0.021-0.021 0.021-0.035 0-0.064-0.028-0.064-0.064v-0.261h-0.042c-0.021 0-0.021-0.007-0.021-0.021 0-0.007 0-0.021 0.021-0.021h0.042v-0.134c0-0.007 0.007-0.021 0.021-0.021 0.007 0 0.021 0.007 0.021 0.021v0.134h0.049c0 0 0.007 0.007 0.007 0.014z"></path>
<path fill="#263238" style="fill: var(--color5, #263238)" d="M14.955 10.49c0-0.064-0.049-0.113-0.113-0.113s-0.113 0.049-0.113 0.113v0.198c0 0.007-0.007 0.007-0.007 0.007h-0.007c0 0 0 0-0.007 0v-0.198c0-0.064-0.049-0.113-0.113-0.113s-0.113 0.049-0.113 0.113v0.198c0 0.007 0 0.014-0.007 0.014 0 0 0 0-0.007 0s-0.014-0.007-0.014-0.014v-0.339c0-0.007 0.007-0.014 0.014-0.014s0.021 0.007 0.021 0.014v0.035c0.028-0.028 0.064-0.049 0.113-0.049 0.056 0 0.106 0.028 0.127 0.078 0.028-0.042 0.078-0.078 0.127-0.078 0.078 0 0.148 0.064 0.148 0.148v0.198c0 0.007-0.007 0.014-0.021 0.014-0.007 0-0.014-0.007-0.014-0.014v-0.198h-0.014z"></path>
<path fill="#263238" style="fill: var(--color5, #263238)" d="M15.117 10.525c0-0.099 0.078-0.184 0.177-0.184 0.092 0 0.17 0.071 0.177 0.17 0 0.007-0.007 0.014-0.021 0.014h-0.297c0.007 0.078 0.064 0.141 0.141 0.141 0.049 0 0.092-0.028 0.113-0.064 0.007-0.007 0.014-0.007 0.021-0.007 0.007 0.007 0.014 0.014 0.007 0.028-0.028 0.049-0.085 0.085-0.148 0.085-0.092-0.007-0.17-0.085-0.17-0.184zM15.152 10.49h0.275c-0.014-0.071-0.071-0.12-0.134-0.12-0.071 0.007-0.127 0.056-0.141 0.12z"></path>
<path fill="#263238" style="fill: var(--color5, #263238)" d="M15.689 10.356c0 0.007-0.007 0.021-0.021 0.021h-0.049v0.261c0 0.021 0.021 0.028 0.028 0.028s0.021 0.007 0.021 0.021c0 0.007-0.007 0.021-0.021 0.021-0.035 0-0.064-0.028-0.064-0.064v-0.261h-0.042c-0.021 0-0.021-0.007-0.021-0.021 0-0.007 0-0.021 0.021-0.021h0.042v-0.134c0-0.007 0.007-0.021 0.021-0.021 0.007 0 0.021 0.007 0.021 0.021v0.134h0.049c0.007 0 0.014 0.007 0.014 0.014z"></path>
<path fill="#263238" style="fill: var(--color5, #263238)" d="M16.106 10.483c0-0.064-0.049-0.106-0.113-0.106s-0.113 0.042-0.113 0.106v0.198c0 0.007-0.007 0.007-0.014 0.007s-0.007 0-0.014-0.007v-0.494c0-0.007 0.007-0.021 0.021-0.021 0.007 0 0.021 0.007 0.021 0.021v0.191c0.028-0.035 0.071-0.056 0.113-0.056 0.085 0 0.148 0.056 0.148 0.141v0.198c0 0.007-0.007 0.021-0.021 0.021-0.007 0-0.014-0.007-0.014-0.021v-0.177h-0.014z"></path>
<path fill="#263238" style="fill: var(--color5, #263238)" d="M16.452 10.342c0.092 0 0.17 0.085 0.17 0.184s-0.078 0.184-0.17 0.184c-0.092 0-0.17-0.085-0.17-0.184-0.007-0.099 0.071-0.184 0.17-0.184zM16.452 10.667c0.071 0 0.134-0.064 0.134-0.148 0-0.078-0.064-0.148-0.134-0.148s-0.134 0.064-0.134 0.148c-0.007 0.085 0.056 0.148 0.134 0.148z"></path>
<path fill="#263238" style="fill: var(--color5, #263238)" d="M17.045 10.631c-0.028 0.042-0.085 0.071-0.141 0.071-0.099 0-0.177-0.078-0.177-0.177s0.078-0.184 0.177-0.184c0.056 0 0.106 0.028 0.141 0.071v-0.205c0-0.007 0.007-0.021 0.021-0.021 0.007 0 0.014 0.007 0.014 0.021v0.48c0 0.007-0.007 0.021-0.014 0.021s-0.021-0.007-0.021-0.021v-0.056zM17.045 10.525v-0.014c0-0.078-0.064-0.141-0.141-0.141s-0.141 0.064-0.141 0.148c0 0.078 0.064 0.141 0.141 0.141 0.078 0.007 0.141-0.056 0.141-0.134z"></path>
<path fill="#263238" style="fill: var(--color5, #263238)" d="M11.119 6.746h-0.155c-0.007 0-0.021-0.007-0.021-0.021 0-0.007 0.007-0.021 0.021-0.021h0.346c0.007 0 0.021 0.007 0.021 0.021 0 0.007-0.007 0.021-0.021 0.021h-0.155v0.459c0 0.007-0.007 0.021-0.021 0.021-0.007 0-0.021-0.007-0.021-0.021v-0.459h0.007z"></path>
<path fill="#263238" style="fill: var(--color5, #263238)" d="M11.507 6.866c0.092 0 0.17 0.085 0.17 0.184s-0.078 0.184-0.17 0.184c-0.092 0-0.17-0.085-0.17-0.184s0.078-0.184 0.17-0.184zM11.507 7.191c0.071 0 0.134-0.064 0.134-0.148 0-0.078-0.064-0.148-0.134-0.148s-0.134 0.064-0.134 0.148c0 0.085 0.064 0.148 0.134 0.148z"></path>
<path fill="#263238" style="fill: var(--color5, #263238)" d="M11.931 6.887c0 0.007-0.007 0.021-0.021 0.021h-0.042v0.261c0 0.021 0.021 0.028 0.028 0.028s0.021 0.007 0.021 0.021c0 0.007-0.007 0.021-0.021 0.021-0.035 0-0.064-0.028-0.064-0.064v-0.261h-0.042c-0.021 0-0.021-0.007-0.021-0.021 0-0.007 0-0.021 0.021-0.021h0.042v-0.134c0-0.007 0.007-0.021 0.021-0.021 0.007 0 0.021 0.007 0.021 0.021v0.134h0.049c-0.007-0.007 0.007 0.007 0.007 0.014z"></path>
<path fill="#263238" style="fill: var(--color5, #263238)" d="M12.376 6.887v0.325c0 0.007-0.007 0.021-0.021 0.021-0.007 0-0.021-0.007-0.021-0.021v-0.056c-0.028 0.042-0.078 0.071-0.134 0.071-0.092 0-0.17-0.085-0.17-0.184s0.078-0.184 0.17-0.184c0.056 0 0.106 0.028 0.134 0.071v-0.056c0-0.007 0.007-0.021 0.021-0.021 0.014 0.014 0.021 0.021 0.021 0.035zM12.341 7.050c0-0.078-0.064-0.148-0.134-0.148s-0.134 0.064-0.134 0.148c0 0.078 0.064 0.148 0.134 0.148 0.078-0.007 0.134-0.071 0.134-0.148z"></path>
<path fill="#263238" style="fill: var(--color5, #263238)" d="M12.546 6.732c0-0.007 0.007-0.021 0.021-0.021 0.007 0 0.021 0.007 0.021 0.021v0.48c0 0.007-0.007 0.021-0.021 0.021-0.007 0-0.021-0.007-0.021-0.021v-0.48z"></path>
<path fill="#263238" style="fill: var(--color5, #263238)" d="M12.948 7.057v-0.17c0-0.007 0.007-0.021 0.021-0.021 0.007 0 0.021 0.007 0.021 0.021v0.049c0.028-0.042 0.078-0.071 0.134-0.071 0.099 0 0.177 0.078 0.177 0.177s-0.078 0.177-0.177 0.177c-0.056 0-0.106-0.028-0.134-0.071v0.205c0 0.007-0.007 0.021-0.021 0.021-0.007 0-0.021-0.007-0.021-0.021v-0.297zM12.984 7.050c0 0.078 0.064 0.141 0.134 0.141 0.078 0 0.141-0.064 0.141-0.141s-0.064-0.141-0.141-0.141c-0.071-0.007-0.127 0.056-0.134 0.141z"></path>
<path fill="#263238" style="fill: var(--color5, #263238)" d="M13.436 6.887c0-0.007 0.007-0.021 0.021-0.021 0.007 0 0.014 0.007 0.014 0.021v0.078c0 0 0-0.007 0.007-0.007 0.028-0.042 0.078-0.092 0.141-0.092 0.007 0 0.021 0.007 0.021 0.021 0 0.007-0.007 0.021-0.021 0.021-0.049 0-0.078 0.028-0.106 0.056-0.021 0.035-0.035 0.071-0.042 0.085v0.162c0 0.007-0.007 0.021-0.014 0.021s-0.021-0.007-0.021-0.021v-0.325z"></path>
<path fill="#263238" style="fill: var(--color5, #263238)" d="M13.761 6.767c0-0.007 0.007-0.021 0.021-0.021 0.007 0 0.021 0.007 0.021 0.021v0.014c0 0.007-0.007 0.021-0.021 0.021-0.007 0-0.021-0.007-0.021-0.021v-0.014zM13.761 6.887c0-0.007 0.007-0.021 0.021-0.021 0.007 0 0.021 0.007 0.021 0.021v0.325c0 0.007-0.007 0.021-0.021 0.021-0.007 0-0.021-0.007-0.021-0.021v-0.325z"></path>
<path fill="#263238" style="fill: var(--color5, #263238)" d="M13.937 7.050c0-0.099 0.085-0.177 0.184-0.177 0.042 0 0.085 0.014 0.113 0.042 0.007 0.007 0.007 0.014 0 0.021s-0.014 0.007-0.021 0c-0.028-0.021-0.056-0.035-0.092-0.035-0.085 0-0.148 0.064-0.148 0.148 0 0.078 0.064 0.148 0.148 0.148 0.035 0 0.071-0.014 0.092-0.028 0.007-0.007 0.021-0.007 0.021 0 0.007 0.007 0.007 0.021-0.007 0.028-0.028 0.021-0.071 0.035-0.113 0.035-0.092-0.007-0.177-0.085-0.177-0.184z"></path>
<path fill="#263238" style="fill: var(--color5, #263238)" d="M14.354 7.050c0-0.099 0.078-0.184 0.177-0.184 0.092 0 0.17 0.071 0.177 0.17 0 0.007-0.007 0.014-0.021 0.014h-0.297c0.007 0.078 0.064 0.141 0.141 0.141 0.049 0 0.092-0.028 0.113-0.064 0.007-0.007 0.014-0.007 0.021-0.007 0.007 0.007 0.014 0.014 0.007 0.028-0.028 0.049-0.085 0.085-0.148 0.085-0.092-0.007-0.17-0.085-0.17-0.184zM14.389 7.022h0.275c-0.014-0.071-0.071-0.12-0.134-0.12-0.071 0-0.127 0.049-0.141 0.12z"></path>
<path fill="#24cca7" style="fill: var(--color3, #24cca7)" d="M11.408 7.707c0.035 0 0.064 0.028 0.064 0.064v0.035c0.085 0.007 0.162 0.035 0.226 0.078 0.021 0.014 0.042 0.035 0.042 0.071 0 0.042-0.035 0.078-0.085 0.078-0.014 0-0.028-0.007-0.042-0.014-0.049-0.028-0.099-0.056-0.155-0.064v0.283c0.226 0.056 0.318 0.148 0.318 0.304 0 0.162-0.127 0.268-0.318 0.29v0.092c0 0.035-0.028 0.064-0.064 0.064s-0.064-0.028-0.064-0.064v-0.092c-0.113-0.014-0.212-0.049-0.304-0.113-0.028-0.014-0.042-0.042-0.042-0.071 0-0.042 0.035-0.078 0.078-0.078 0.021 0 0.035 0.007 0.049 0.014 0.071 0.049 0.134 0.085 0.219 0.099v-0.29c-0.219-0.056-0.318-0.134-0.318-0.304 0-0.155 0.127-0.268 0.311-0.283v-0.035c0.021-0.035 0.049-0.064 0.085-0.064zM11.345 8.208v-0.261c-0.092 0.007-0.141 0.057-0.141 0.127 0 0.064 0.028 0.099 0.141 0.134zM11.465 8.413v0.268c0.092-0.007 0.148-0.056 0.148-0.127 0-0.064-0.035-0.106-0.148-0.141z"></path>
<path fill="#24cca7" style="fill: var(--color3, #24cca7)" d="M12.63 8.484c0 0.191-0.155 0.353-0.353 0.353s-0.353-0.155-0.353-0.353c0-0.12 0.064-0.233 0.155-0.297-0.028-0.042-0.049-0.092-0.049-0.148 0-0.134 0.106-0.24 0.247-0.24 0.134 0 0.24 0.106 0.24 0.24 0 0.056-0.021 0.106-0.049 0.148 0.099 0.064 0.162 0.17 0.162 0.297zM12.468 8.484c0-0.106-0.085-0.191-0.191-0.191s-0.191 0.085-0.191 0.191c0 0.106 0.085 0.191 0.191 0.191s0.191-0.092 0.191-0.191zM12.193 8.039c0 0.042 0.035 0.085 0.085 0.085 0.042 0 0.078-0.035 0.078-0.085 0-0.042-0.035-0.078-0.078-0.078-0.049 0-0.085 0.035-0.085 0.078z"></path>
<path fill="#24cca7" style="fill: var(--color3, #24cca7)" d="M12.864 8.159c0-0.198 0.162-0.36 0.36-0.36 0.184 0 0.339 0.141 0.353 0.318 0 0.028 0 0.056 0 0.085 0 0.099-0.014 0.205-0.049 0.304s-0.099 0.191-0.191 0.254c-0.064 0.042-0.134 0.064-0.219 0.071-0.042 0-0.085-0.035-0.085-0.078s0.035-0.078 0.078-0.085c0.056 0 0.099-0.021 0.141-0.042 0.035-0.028 0.071-0.056 0.092-0.106 0.007-0.014 0.014-0.028 0.021-0.035-0.042 0.021-0.092 0.028-0.141 0.028-0.205 0-0.36-0.155-0.36-0.353zM13.026 8.159c0 0.106 0.085 0.198 0.198 0.198 0.106 0 0.191-0.092 0.191-0.198s-0.085-0.191-0.191-0.191c-0.113-0.007-0.198 0.078-0.198 0.191z"></path>
<path fill="#24cca7" style="fill: var(--color3, #24cca7)" d="M13.81 8.964c0.071-0.021 0.106-0.071 0.099-0.134-0.042-0.014-0.085-0.049-0.085-0.099v-0.014c0-0.056 0.042-0.099 0.099-0.099 0.064 0 0.106 0.049 0.106 0.127v0.014c0 0.099-0.028 0.17-0.071 0.219-0.042 0.035-0.099 0.064-0.141 0.064-0.028 0-0.042-0.021-0.042-0.042 0-0.014 0.014-0.028 0.035-0.035z"></path>
<path fill="#24cca7" style="fill: var(--color3, #24cca7)" d="M14.135 8.159c0-0.198 0.162-0.36 0.36-0.36 0.184 0 0.339 0.141 0.353 0.318 0 0.028 0 0.056 0 0.085 0 0.099-0.014 0.205-0.049 0.304s-0.099 0.191-0.191 0.254c-0.064 0.042-0.134 0.064-0.219 0.071-0.042 0-0.085-0.035-0.085-0.078s0.035-0.078 0.078-0.085c0.056 0 0.099-0.021 0.141-0.042 0.035-0.028 0.071-0.056 0.092-0.106 0.007-0.014 0.014-0.028 0.021-0.035-0.042 0.021-0.092 0.028-0.141 0.028-0.198 0-0.36-0.155-0.36-0.353zM14.298 8.159c0 0.106 0.085 0.198 0.198 0.198 0.106 0 0.191-0.092 0.191-0.198s-0.085-0.191-0.191-0.191c-0.113-0.007-0.198 0.078-0.198 0.191z"></path>
<path fill="#24cca7" style="fill: var(--color3, #24cca7)" d="M15.082 8.159c0-0.198 0.162-0.36 0.36-0.36 0.184 0 0.339 0.141 0.353 0.318 0 0.028 0 0.056 0 0.085 0 0.099-0.014 0.205-0.049 0.304s-0.099 0.191-0.191 0.254c-0.064 0.042-0.134 0.064-0.219 0.071-0.042 0-0.085-0.035-0.085-0.078s0.035-0.078 0.078-0.085c0.056 0 0.099-0.021 0.141-0.042 0.035-0.028 0.071-0.056 0.092-0.106 0.007-0.014 0.014-0.028 0.021-0.035-0.042 0.021-0.092 0.028-0.141 0.028-0.198 0-0.36-0.155-0.36-0.353zM15.244 8.159c0 0.106 0.085 0.198 0.198 0.198 0.106 0 0.191-0.092 0.191-0.198s-0.085-0.191-0.191-0.191c-0.113-0.007-0.198 0.078-0.198 0.191z"></path>
<path fill="#263238" style="fill: var(--color5, #263238)" d="M13.485 4.761c0-0.007 0.007-0.021 0.021-0.021h0.141c0.078 0 0.148 0.064 0.148 0.148 0 0.078-0.064 0.148-0.148 0.148h-0.127v0.205c0 0.007-0.007 0.021-0.021 0.021-0.007 0-0.021-0.007-0.021-0.021v-0.48h0.007zM13.648 5.008c0.064 0 0.113-0.049 0.113-0.113s-0.049-0.113-0.113-0.113h-0.127v0.226h0.127z"></path>
<path fill="#263238" style="fill: var(--color5, #263238)" d="M14.206 4.917v0.325c0 0.007-0.007 0.021-0.021 0.021-0.007 0-0.021-0.007-0.021-0.021v-0.056c-0.028 0.042-0.078 0.071-0.134 0.071-0.092 0-0.17-0.085-0.17-0.184s0.078-0.184 0.17-0.184c0.056 0 0.106 0.028 0.134 0.071v-0.056c0-0.007 0.007-0.021 0.021-0.021 0.014 0.021 0.021 0.028 0.021 0.035zM14.17 5.079c0-0.078-0.064-0.148-0.134-0.148s-0.134 0.064-0.134 0.148c0 0.078 0.064 0.148 0.134 0.148 0.078 0 0.134-0.064 0.134-0.148z"></path>
<path fill="#263238" style="fill: var(--color5, #263238)" d="M14.354 4.917c0-0.007 0.007-0.014 0.014-0.014s0.021 0.007 0.021 0.014v0.198c0 0.064 0.049 0.113 0.113 0.113s0.113-0.049 0.113-0.113v-0.205l0.007-0.007c0 0 0.007 0 0.007 0.007l0.007 0.007v0.325c0 0.092-0.078 0.17-0.17 0.17-0.028 0-0.049-0.007-0.078-0.014-0.007-0.007-0.014-0.014-0.007-0.021s0.014-0.014 0.021-0.007c0.021 0.007 0.035 0.014 0.056 0.014 0.078 0 0.134-0.056 0.134-0.134v-0.021c-0.028 0.028-0.064 0.049-0.113 0.049-0.078 0-0.148-0.064-0.148-0.148v-0.212h0.021z"></path>
<path fill="#263238" style="fill: var(--color5, #263238)" d="M15.336 5.051c0-0.064-0.049-0.113-0.113-0.113s-0.113 0.049-0.113 0.113v0.198c0 0.007-0.007 0.007-0.007 0.007h-0.007c0 0 0 0-0.007 0v-0.198c0-0.064-0.049-0.113-0.113-0.113s-0.113 0.049-0.113 0.113v0.198c0 0.007 0 0.014-0.007 0.014 0 0 0 0-0.007 0s-0.014-0.007-0.014-0.014v-0.339c0-0.007 0.007-0.014 0.014-0.014s0.021 0.007 0.021 0.014v0.035c0.028-0.028 0.064-0.049 0.113-0.049 0.056 0 0.106 0.028 0.127 0.078 0.028-0.042 0.078-0.078 0.127-0.078 0.078 0 0.148 0.064 0.148 0.148v0.198c0 0.007-0.007 0.014-0.021 0.014-0.007 0-0.014-0.007-0.014-0.014v-0.198h-0.014z"></path>
<path fill="#263238" style="fill: var(--color5, #263238)" d="M15.491 5.079c0-0.099 0.078-0.184 0.177-0.184 0.092 0 0.17 0.071 0.177 0.17 0 0.007-0.007 0.014-0.021 0.014h-0.297c0.007 0.078 0.064 0.141 0.141 0.141 0.049 0 0.092-0.028 0.113-0.064 0.007-0.007 0.014-0.007 0.021-0.007 0.007 0.007 0.014 0.014 0.007 0.028-0.028 0.049-0.085 0.085-0.148 0.085-0.092 0-0.17-0.085-0.17-0.184zM15.534 5.051h0.275c-0.014-0.071-0.071-0.12-0.134-0.12-0.071 0.007-0.127 0.056-0.141 0.12z"></path>
<path fill="#263238" style="fill: var(--color5, #263238)" d="M16.226 5.051c0-0.064-0.049-0.113-0.113-0.113s-0.113 0.049-0.113 0.113v0.198c0 0 0 0.007-0.007 0.007 0 0.007-0.007 0.007-0.014 0.007h-0.007c-0.007 0-0.007-0.007-0.014-0.007v-0.332c0-0.007 0.007-0.021 0.021-0.021 0.007 0 0.014 0.007 0.014 0.021v0.035c0.028-0.028 0.064-0.049 0.113-0.049 0.078 0 0.148 0.064 0.148 0.148v0.198c0 0.007-0.007 0.021-0.021 0.021-0.007 0-0.014-0.007-0.014-0.021v-0.205h0.007z"></path>
<path fill="#263238" style="fill: var(--color5, #263238)" d="M16.551 4.917c0 0.007-0.007 0.021-0.021 0.021h-0.049v0.261c0 0.021 0.021 0.028 0.028 0.028s0.021 0.007 0.021 0.021c0 0.007-0.007 0.021-0.021 0.021-0.035 0-0.064-0.028-0.064-0.064v-0.261h-0.042c-0.014 0-0.014-0.007-0.014-0.021 0-0.007 0-0.021 0.014-0.021h0.042v-0.134c0-0.007 0.007-0.021 0.014-0.021s0.021 0.007 0.021 0.021v0.134h0.049c0.007 0 0.021 0.007 0.021 0.014z"></path>
<path fill="#263238" style="fill: var(--color5, #263238)" d="M16.968 5.263c-0.014 0-0.021-0.007-0.021-0.021v-0.48c0-0.007 0.007-0.021 0.021-0.021h0.092c0.141 0 0.261 0.113 0.261 0.261 0 0.141-0.113 0.254-0.261 0.254h-0.092v0.007zM17.060 5.227c0.12 0 0.219-0.099 0.219-0.219s-0.099-0.219-0.219-0.226h-0.078v0.445h0.078z"></path>
<path fill="#263238" style="fill: var(--color5, #263238)" d="M17.702 4.917v0.325c0 0.007-0.007 0.021-0.014 0.021s-0.021-0.007-0.021-0.021v-0.056c-0.028 0.042-0.078 0.071-0.134 0.071-0.092 0-0.17-0.085-0.17-0.184s0.078-0.184 0.17-0.184c0.056 0 0.106 0.028 0.134 0.071v-0.056c0-0.007 0.007-0.021 0.021-0.021 0.007 0.021 0.014 0.028 0.014 0.035zM17.667 5.079c0-0.078-0.064-0.148-0.134-0.148s-0.134 0.064-0.134 0.148c0 0.078 0.064 0.148 0.134 0.148 0.078 0 0.134-0.064 0.134-0.148z"></path>
<path fill="#263238" style="fill: var(--color5, #263238)" d="M17.985 4.917c0 0.007-0.007 0.021-0.021 0.021h-0.049v0.261c0 0.021 0.021 0.028 0.028 0.028s0.021 0.007 0.021 0.021c0 0.007-0.007 0.021-0.021 0.021-0.035 0-0.064-0.028-0.064-0.064v-0.261h-0.042c-0.014 0-0.014-0.007-0.014-0.021 0-0.007 0-0.021 0.014-0.021h0.042v-0.134c0-0.007 0.007-0.021 0.014-0.021s0.021 0.007 0.021 0.021v0.134h0.049c0.014 0 0.021 0.007 0.021 0.014z"></path>
<path fill="#263238" style="fill: var(--color5, #263238)" d="M18.437 4.917v0.325c0 0.007-0.007 0.021-0.021 0.021-0.007 0-0.014-0.007-0.014-0.021v-0.056c-0.028 0.042-0.078 0.071-0.134 0.071-0.092 0-0.17-0.085-0.17-0.184s0.078-0.184 0.17-0.184c0.056 0 0.106 0.028 0.134 0.071v-0.056c0-0.007 0.007-0.021 0.014-0.021 0.014 0.021 0.021 0.028 0.021 0.035zM18.402 5.079c0-0.078-0.064-0.148-0.134-0.148s-0.134 0.064-0.134 0.148c0 0.078 0.064 0.148 0.134 0.148s0.134-0.064 0.134-0.148z"></path>
<path fill="#4a56e2" style="fill: var(--color7, #4a56e2)" d="M11.309 5.213l-0.247-0.226 0.247-0.226 0.049 0.049-0.184 0.177 0.184 0.177-0.049 0.049z"></path>
<path fill="#4a56e2" style="fill: var(--color7, #4a56e2)" d="M11.267 5.383c-0.219 0-0.396-0.177-0.396-0.396s0.177-0.396 0.396-0.396c0.219 0 0.396 0.177 0.396 0.396s-0.177 0.396-0.396 0.396zM11.267 4.662c-0.177 0-0.325 0.141-0.325 0.325 0 0.177 0.141 0.325 0.325 0.325 0.177 0 0.325-0.141 0.325-0.325 0-0.177-0.148-0.325-0.325-0.325z"></path>
<path fill="#fff" style="fill: var(--color4, #fff)" d="M20.436 18.536l-0.297-0.459 0.127-0.085 0.184 0.297 0.586-0.735 0.113 0.092-0.713 0.89z"></path>
<path fill="#263238" style="fill: var(--color5, #263238)" d="M10.963 20.5c0.007-0.007 0.014-0.007 0.021 0 0.035 0.028 0.106 0.071 0.17 0.064 0.042 0 0.085-0.014 0.113-0.035s0.042-0.049 0.042-0.078c0-0.028-0.014-0.049-0.042-0.071s-0.071-0.035-0.12-0.042c-0.049-0.007-0.092-0.021-0.12-0.042s-0.056-0.049-0.056-0.092c0-0.042 0.021-0.071 0.056-0.099 0.035-0.021 0.078-0.035 0.127-0.035 0.071 0 0.12 0.035 0.162 0.056 0.007 0.007 0.007 0.014 0.007 0.021-0.007 0.007-0.014 0.007-0.021 0.007-0.042-0.028-0.085-0.056-0.141-0.056-0.042 0-0.078 0.014-0.106 0.028-0.028 0.021-0.042 0.042-0.042 0.071s0.014 0.042 0.035 0.064c0.028 0.021 0.064 0.028 0.113 0.042 0.049 0.007 0.099 0.021 0.134 0.049 0.035 0.021 0.056 0.056 0.056 0.099s-0.021 0.078-0.056 0.106c-0.035 0.028-0.078 0.042-0.134 0.042-0.078 0-0.148-0.042-0.191-0.078-0.014 0-0.014-0.014-0.007-0.021z"></path>
<path fill="#263238" style="fill: var(--color5, #263238)" d="M11.776 20.26v0.325c0 0.007-0.007 0.021-0.021 0.021-0.007 0-0.021-0.007-0.021-0.021v-0.056c-0.028 0.042-0.078 0.071-0.134 0.071-0.092 0-0.17-0.085-0.17-0.184s0.078-0.184 0.17-0.184c0.056 0 0.106 0.028 0.134 0.071v-0.056c0-0.007 0.007-0.021 0.021-0.021 0.007 0.014 0.021 0.021 0.021 0.035zM11.74 20.422c0-0.078-0.064-0.148-0.134-0.148s-0.134 0.064-0.134 0.148c0 0.078 0.064 0.148 0.134 0.148 0.071-0.007 0.134-0.071 0.134-0.148z"></path>
<path fill="#263238" style="fill: var(--color5, #263238)" d="M12.030 20.599l-0.007-0.007-0.134-0.325c-0.007-0.007 0-0.021 0.007-0.021 0.007-0.007 0.021 0 0.021 0.007l0.12 0.283 0.12-0.283c0-0.007 0.014-0.014 0.021-0.007s0.014 0.014 0.007 0.021l-0.134 0.318c0 0 0 0.007-0.007 0.007 0 0.007-0.007 0.007-0.014 0.007 0.007 0 0.007 0 0 0z"></path>
<path fill="#263238" style="fill: var(--color5, #263238)" d="M12.291 20.422c0-0.099 0.078-0.184 0.177-0.184 0.092 0 0.17 0.071 0.177 0.17 0 0.007-0.007 0.014-0.021 0.014h-0.297c0.007 0.078 0.064 0.141 0.141 0.141 0.049 0 0.092-0.028 0.113-0.064 0.007-0.007 0.014-0.007 0.021-0.007 0.007 0.007 0.014 0.014 0.007 0.028-0.028 0.049-0.085 0.085-0.148 0.085-0.092-0.007-0.17-0.085-0.17-0.184zM12.334 20.394h0.275c-0.014-0.071-0.071-0.12-0.134-0.12-0.078 0-0.134 0.049-0.141 0.12z"></path>
<path fill="#263238" style="fill: var(--color5, #263238)" d="M12.962 20.415c0-0.099 0.085-0.177 0.184-0.177 0.042 0 0.085 0.014 0.113 0.042 0.007 0.007 0.007 0.014 0 0.021s-0.014 0.007-0.021 0c-0.028-0.021-0.056-0.035-0.092-0.035-0.085 0-0.148 0.064-0.148 0.148 0 0.078 0.064 0.148 0.148 0.148 0.035 0 0.071-0.014 0.092-0.028 0.007-0.007 0.021-0.007 0.021 0 0.007 0.007 0.007 0.021-0.007 0.028-0.028 0.021-0.071 0.035-0.113 0.035-0.092 0-0.177-0.078-0.177-0.184z"></path>
<path fill="#263238" style="fill: var(--color5, #263238)" d="M13.711 20.26v0.325c0 0.007-0.007 0.021-0.021 0.021-0.007 0-0.021-0.007-0.021-0.021v-0.056c-0.028 0.042-0.078 0.071-0.134 0.071-0.092 0-0.17-0.085-0.17-0.184s0.078-0.184 0.17-0.184c0.056 0 0.106 0.028 0.134 0.071v-0.056c0-0.007 0.007-0.021 0.021-0.021 0.014 0.014 0.021 0.021 0.021 0.035zM13.676 20.422c0-0.078-0.064-0.148-0.134-0.148s-0.134 0.064-0.134 0.148c0 0.078 0.064 0.148 0.134 0.148 0.078-0.007 0.134-0.071 0.134-0.148z"></path>
<path fill="#263238" style="fill: var(--color5, #263238)" d="M13.867 20.26c0-0.007 0.007-0.021 0.021-0.021 0.007 0 0.014 0.007 0.014 0.021v0.078c0 0 0-0.007 0.007-0.007 0.028-0.042 0.078-0.092 0.141-0.092 0.007 0 0.021 0.007 0.021 0.021 0 0.007-0.007 0.014-0.021 0.014-0.049 0-0.078 0.028-0.106 0.056-0.021 0.035-0.035 0.071-0.042 0.085v0.162c0 0.007-0.007 0.021-0.014 0.021s-0.021-0.007-0.021-0.021v-0.318z"></path>
<path fill="#263238" style="fill: var(--color5, #263238)" d="M14.46 20.528c-0.028 0.042-0.085 0.071-0.141 0.071-0.099 0-0.177-0.078-0.177-0.177s0.078-0.184 0.177-0.184c0.056 0 0.106 0.028 0.141 0.071v-0.205c0-0.007 0.007-0.014 0.021-0.014 0.007 0 0.021 0.007 0.021 0.014v0.48c0 0.007-0.007 0.021-0.021 0.021-0.007 0-0.021-0.007-0.021-0.021v-0.056zM14.46 20.429v-0.014c0-0.078-0.064-0.141-0.141-0.141s-0.141 0.064-0.141 0.148c0 0.078 0.064 0.141 0.141 0.141s0.141-0.064 0.141-0.134z"></path>
<path fill="#263238" style="fill: var(--color5, #263238)" d="M15.138 20.387c0-0.064-0.049-0.113-0.113-0.113s-0.113 0.049-0.113 0.113v0.198c0 0 0 0.007-0.007 0.007 0 0.007-0.007 0.007-0.014 0.007h-0.007c-0.007 0-0.007-0.007-0.014-0.007v-0.332c0-0.007 0.007-0.021 0.021-0.021 0.007 0 0.014 0.007 0.014 0.021v0.035c0.028-0.028 0.064-0.049 0.113-0.049 0.078 0 0.148 0.064 0.148 0.148v0.198c0 0.007-0.007 0.021-0.021 0.021-0.007 0-0.021-0.007-0.021-0.021v-0.205h0.014z"></path>
<path fill="#263238" style="fill: var(--color5, #263238)" d="M15.329 20.253c0-0.007 0.007-0.014 0.021-0.014 0.007 0 0.021 0.007 0.021 0.014v0.198c0 0.064 0.049 0.113 0.113 0.113s0.113-0.049 0.113-0.113v-0.198c0-0.007 0.007-0.014 0.021-0.014 0.007 0 0.021 0.007 0.021 0.014v0.198c0 0.078-0.064 0.148-0.148 0.148-0.078 0-0.148-0.064-0.148-0.148v-0.198h-0.014z"></path>
<path fill="#263238" style="fill: var(--color5, #263238)" d="M16.304 20.387c0-0.064-0.049-0.113-0.113-0.113s-0.113 0.049-0.113 0.113v0.198c0 0.007-0.007 0.007-0.007 0.007h-0.007c0 0 0 0-0.007 0v-0.198c0-0.064-0.049-0.113-0.113-0.113s-0.113 0.049-0.113 0.113v0.198c0 0.007 0 0.014-0.007 0.014 0 0 0 0-0.007 0s-0.014-0.007-0.014-0.014v-0.339c0-0.007 0.007-0.014 0.014-0.014s0.021 0.007 0.021 0.014v0.035c0.028-0.028 0.064-0.049 0.113-0.049 0.057 0 0.106 0.028 0.127 0.078 0.028-0.042 0.078-0.078 0.127-0.078 0.078 0 0.148 0.064 0.148 0.148v0.198c0 0.007-0.007 0.014-0.021 0.014-0.007 0-0.014-0.007-0.014-0.014v-0.198h-0.014z"></path>
<path fill="#263238" style="fill: var(--color5, #263238)" d="M16.487 20.429v-0.325c0-0.007 0.007-0.014 0.014-0.014s0.021 0.007 0.021 0.014v0.205c0.028-0.042 0.085-0.071 0.141-0.071 0.099 0 0.177 0.078 0.177 0.184 0 0.099-0.078 0.177-0.177 0.177-0.056 0-0.106-0.028-0.141-0.071v0.049c0 0.007-0.007 0.021-0.021 0.021-0.007 0-0.014-0.007-0.014-0.021v-0.148zM16.523 20.422c0 0.078 0.064 0.141 0.141 0.141s0.141-0.064 0.141-0.141c0-0.078-0.064-0.148-0.141-0.148s-0.134 0.064-0.141 0.148z"></path>
<path fill="#263238" style="fill: var(--color5, #263238)" d="M16.947 20.422c0-0.099 0.078-0.184 0.177-0.184 0.092 0 0.17 0.071 0.177 0.17 0 0.007-0.007 0.014-0.021 0.014h-0.297c0.007 0.078 0.064 0.141 0.141 0.141 0.049 0 0.092-0.028 0.113-0.064 0.007-0.007 0.014-0.007 0.021-0.007 0.007 0.007 0.014 0.014 0.007 0.028-0.028 0.049-0.085 0.085-0.148 0.085-0.092-0.007-0.17-0.085-0.17-0.184zM16.989 20.394h0.276c-0.014-0.071-0.071-0.12-0.134-0.12-0.071 0-0.127 0.049-0.141 0.12z"></path>
<path fill="#263238" style="fill: var(--color5, #263238)" d="M17.406 20.26c0-0.007 0.007-0.021 0.021-0.021 0.007 0 0.014 0.007 0.014 0.021v0.078c0 0 0-0.007 0.007-0.007 0.028-0.042 0.078-0.092 0.141-0.092 0.007 0 0.014 0.007 0.014 0.021 0 0.007-0.007 0.014-0.014 0.014-0.049 0-0.078 0.028-0.106 0.056-0.021 0.035-0.035 0.071-0.042 0.085v0.162c0 0.007-0.007 0.021-0.014 0.021s-0.021-0.007-0.021-0.021v-0.318z"></path>
<path fill="#4a56e2" style="fill: var(--color7, #4a56e2)" opacity="0.5" d="M20.514 20.733h-0.989c-0.198 0-0.367-0.162-0.367-0.367v-0.035c0-0.198 0.162-0.367 0.367-0.367h0.989c0.198 0 0.367 0.162 0.367 0.367v0.035c-0.007 0.205-0.17 0.367-0.367 0.367z"></path>
<path fill="#24cca7" style="fill: var(--color3, #24cca7)" d="M19.68 22.513h-7.431c-0.234 0-0.424 0.19-0.424 0.424v0.742c0 0.234 0.19 0.424 0.424 0.424h7.431c0.234 0 0.424-0.19 0.424-0.424v-0.742c0-0.234-0.19-0.424-0.424-0.424z"></path>
<path fill="#fff" style="fill: var(--color4, #fff)" d="M12.539 23.008c0-0.007 0.007-0.021 0.021-0.021h0.141c0.078 0 0.148 0.064 0.148 0.148s-0.064 0.148-0.148 0.148h-0.127v0.205c0 0.007-0.007 0.014-0.021 0.014-0.007 0-0.021-0.007-0.021-0.014v-0.48h0.007zM12.701 23.248c0.064 0 0.113-0.049 0.113-0.113s-0.049-0.113-0.113-0.113h-0.127v0.226h0.127z"></path>
<path fill="#fff" style="fill: var(--color4, #fff)" d="M12.962 23.163c0-0.007 0.007-0.014 0.021-0.014 0.007 0 0.014 0.007 0.014 0.014v0.078c0 0 0-0.007 0.007-0.007 0.028-0.042 0.078-0.092 0.141-0.092 0.007 0 0.021 0.007 0.021 0.014s-0.007 0.021-0.021 0.021c-0.049 0-0.078 0.028-0.106 0.056-0.021 0.035-0.035 0.071-0.042 0.085v0.162c0 0.007-0.007 0.014-0.014 0.014s-0.021-0.007-0.021-0.014v-0.318z"></path>
<path fill="#fff" style="fill: var(--color4, #fff)" d="M13.422 23.142c0.092 0 0.17 0.085 0.17 0.184s-0.078 0.184-0.17 0.184c-0.092 0-0.17-0.085-0.17-0.184-0.007-0.099 0.071-0.184 0.17-0.184zM13.422 23.467c0.071 0 0.134-0.064 0.134-0.148 0-0.078-0.064-0.148-0.134-0.148s-0.134 0.064-0.134 0.148c0 0.085 0.056 0.148 0.134 0.148z"></path>
<path fill="#fff" style="fill: var(--color4, #fff)" d="M13.704 23.325c0-0.099 0.085-0.177 0.184-0.177 0.042 0 0.085 0.014 0.113 0.042 0.007 0.007 0.007 0.014 0 0.021s-0.014 0.007-0.021 0c-0.028-0.021-0.056-0.035-0.092-0.035-0.085 0-0.148 0.064-0.148 0.148 0 0.078 0.064 0.148 0.148 0.148 0.035 0 0.071-0.014 0.092-0.028 0.007-0.007 0.021-0.007 0.021 0 0.007 0.007 0.007 0.021-0.007 0.028-0.028 0.021-0.071 0.035-0.113 0.035-0.099-0.007-0.177-0.085-0.177-0.184z"></path>
<path fill="#fff" style="fill: var(--color4, #fff)" d="M14.114 23.325c0-0.099 0.078-0.184 0.177-0.184 0.092 0 0.17 0.071 0.177 0.17 0 0.007-0.007 0.014-0.021 0.014h-0.297c0.007 0.078 0.064 0.141 0.141 0.141 0.049 0 0.092-0.028 0.113-0.064 0.007-0.007 0.014-0.007 0.021-0.007 0.007 0.007 0.014 0.014 0.007 0.028-0.028 0.049-0.085 0.085-0.148 0.085-0.092-0.007-0.17-0.085-0.17-0.184zM14.149 23.297h0.275c-0.014-0.071-0.071-0.12-0.134-0.12-0.071 0-0.127 0.049-0.141 0.12z"></path>
<path fill="#fff" style="fill: var(--color4, #fff)" d="M14.559 23.325c0-0.099 0.078-0.184 0.177-0.184 0.092 0 0.17 0.071 0.177 0.17 0 0.007-0.007 0.014-0.021 0.014h-0.297c0.007 0.078 0.064 0.141 0.141 0.141 0.049 0 0.092-0.028 0.113-0.064 0.007-0.007 0.014-0.007 0.021-0.007 0.007 0.007 0.014 0.014 0.007 0.028-0.028 0.049-0.085 0.085-0.148 0.085-0.092-0.007-0.17-0.085-0.17-0.184zM14.601 23.297h0.275c-0.014-0.071-0.071-0.12-0.134-0.12-0.078 0-0.134 0.049-0.141 0.12z"></path>
<path fill="#fff" style="fill: var(--color4, #fff)" d="M15.322 23.431c-0.028 0.042-0.085 0.071-0.141 0.071-0.099 0-0.177-0.078-0.177-0.177s0.078-0.184 0.177-0.184c0.056 0 0.106 0.028 0.141 0.071v-0.205c0-0.007 0.007-0.021 0.021-0.021 0.007 0 0.021 0.007 0.021 0.021v0.48c0 0.007-0.007 0.014-0.021 0.014-0.007 0-0.021-0.007-0.021-0.014v-0.056zM15.322 23.332v-0.014c0-0.078-0.064-0.141-0.141-0.141s-0.141 0.064-0.141 0.148c0 0.078 0.064 0.141 0.141 0.141s0.141-0.064 0.141-0.134z"></path>
<path fill="#fff" style="fill: var(--color4, #fff)" d="M15.873 23.163c0 0.007-0.007 0.021-0.021 0.021h-0.049v0.261c0 0.021 0.021 0.028 0.028 0.028s0.021 0.007 0.021 0.021c0 0.007-0.007 0.014-0.021 0.014-0.035 0-0.064-0.028-0.064-0.064v-0.261h-0.042c-0.021 0-0.021-0.007-0.021-0.021 0-0.007 0-0.021 0.021-0.021h0.042v-0.134c0-0.007 0.007-0.021 0.021-0.021 0.007 0 0.021 0.007 0.021 0.021v0.134h0.049c0 0 0.014 0.007 0.014 0.021z"></path>
<path fill="#fff" style="fill: var(--color4, #fff)" d="M16.184 23.142c0.092 0 0.17 0.085 0.17 0.184s-0.078 0.184-0.17 0.184c-0.092 0-0.17-0.085-0.17-0.184s0.071-0.184 0.17-0.184zM16.184 23.467c0.071 0 0.134-0.064 0.134-0.148 0-0.078-0.064-0.148-0.134-0.148s-0.134 0.064-0.134 0.148c0 0.085 0.056 0.148 0.134 0.148z"></path>
<path fill="#fff" style="fill: var(--color4, #fff)" d="M16.685 23.325c0-0.099 0.085-0.177 0.184-0.177 0.042 0 0.085 0.014 0.113 0.042 0.007 0.007 0.007 0.014 0 0.021s-0.014 0.007-0.021 0c-0.028-0.021-0.056-0.035-0.092-0.035-0.085 0-0.148 0.064-0.148 0.148 0 0.078 0.064 0.148 0.148 0.148 0.035 0 0.071-0.014 0.092-0.028 0.007-0.007 0.021-0.007 0.021 0 0.007 0.007 0.007 0.021-0.007 0.028-0.028 0.021-0.071 0.035-0.113 0.035-0.092-0.007-0.177-0.085-0.177-0.184z"></path>
<path fill="#fff" style="fill: var(--color4, #fff)" d="M17.272 23.142c0.092 0 0.17 0.085 0.17 0.184s-0.078 0.184-0.17 0.184c-0.092 0-0.17-0.085-0.17-0.184s0.078-0.184 0.17-0.184zM17.272 23.467c0.071 0 0.134-0.064 0.134-0.148 0-0.078-0.064-0.148-0.134-0.148s-0.134 0.064-0.134 0.148c0 0.085 0.064 0.148 0.134 0.148z"></path>
<path fill="#fff" style="fill: var(--color4, #fff)" d="M17.837 23.29c0-0.064-0.049-0.113-0.113-0.113s-0.113 0.049-0.113 0.113v0.198c0 0 0 0.007-0.007 0.007 0 0.007-0.007 0.007-0.014 0.007h-0.007c-0.007 0-0.007-0.007-0.014-0.007v-0.332c0-0.007 0.007-0.014 0.014-0.014s0.014 0.007 0.014 0.014v0.035c0.028-0.028 0.064-0.049 0.113-0.049 0.078 0 0.148 0.064 0.148 0.148v0.198c0 0.007-0.007 0.014-0.021 0.014-0.007 0-0.014-0.007-0.014-0.014v-0.205h0.014z"></path>
<path fill="#fff" style="fill: var(--color4, #fff)" d="M18.19 23.008c0 0.007-0.007 0.021-0.014 0.021-0.028 0-0.035 0.007-0.042 0.014s-0.014 0.028-0.014 0.056v0.035h0.049c0.007 0 0.021 0.007 0.021 0.014s-0.007 0.021-0.021 0.021h-0.049v0.311c0 0.007-0.007 0.014-0.021 0.014-0.007 0-0.021-0.007-0.021-0.014v-0.311h-0.049c-0.007 0-0.021-0.007-0.021-0.021 0-0.007 0.007-0.014 0.021-0.014h0.049v-0.035c0-0.035 0.007-0.064 0.021-0.085s0.042-0.028 0.071-0.028c0.014 0 0.021 0.007 0.021 0.021z"></path>
<path fill="#fff" style="fill: var(--color4, #fff)" d="M18.303 23.043c0-0.007 0.007-0.021 0.021-0.021 0.007 0 0.021 0.007 0.021 0.021v0.014c0 0.007-0.007 0.021-0.021 0.021-0.007 0-0.021-0.007-0.021-0.021v-0.014zM18.303 23.163c0-0.007 0.007-0.021 0.021-0.021 0.007 0 0.021 0.007 0.021 0.021v0.325c0 0.007-0.007 0.014-0.021 0.014-0.007 0-0.021-0.007-0.021-0.014v-0.325z"></path>
<path fill="#fff" style="fill: var(--color4, #fff)" d="M18.508 23.163c0-0.007 0.007-0.014 0.021-0.014 0.007 0 0.014 0.007 0.014 0.014v0.078c0 0 0-0.007 0.007-0.007 0.028-0.042 0.078-0.092 0.141-0.092 0.007 0 0.014 0.007 0.014 0.014s-0.007 0.021-0.014 0.021c-0.049 0-0.078 0.028-0.106 0.056-0.021 0.035-0.035 0.071-0.042 0.085v0.162c0 0.007-0.007 0.014-0.014 0.014s-0.021-0.007-0.021-0.014v-0.318z"></path>
<path fill="#fff" style="fill: var(--color4, #fff)" d="M19.348 23.29c0-0.064-0.049-0.113-0.113-0.113s-0.113 0.049-0.113 0.113v0.198c0 0.007-0.007 0.007-0.007 0.007h-0.007c0 0 0 0-0.007 0v-0.198c0-0.064-0.049-0.113-0.113-0.113s-0.113 0.049-0.113 0.113v0.198c0 0.007 0 0.014-0.007 0.014 0 0 0 0-0.007 0s-0.014-0.007-0.014-0.014v-0.339c0-0.007 0.007-0.014 0.014-0.014s0.021 0.007 0.021 0.014v0.035c0.028-0.028 0.064-0.049 0.113-0.049 0.056 0 0.106 0.028 0.127 0.078 0.028-0.042 0.078-0.078 0.127-0.078 0.078 0 0.148 0.064 0.148 0.148v0.198c0 0.007-0.007 0.014-0.021 0.014-0.007 0-0.014-0.007-0.014-0.014v-0.198h-0.014z"></path>
<path fill="#f7a9a0" style="fill: var(--color10, #f7a9a0)" d="M20.387 28.334c0.17 0.028 4.74-0.629 4.895-0.763 0.064-0.049 0.007-0.721-0.092-1.533 0-0.007 0-0.014 0-0.028-0.021-0.17-0.6-2.932-0.6-2.932l-3.059 0.431 0.706 2.889 0.007 0.049c0 0-1.639 1.031-1.794 1.201-0.155 0.177-0.233 0.657-0.064 0.685z"></path>
<path fill="#ffc727" style="fill: var(--color8, #ffc727)" d="M25.282 27.571c-0.155 0.134-4.726 0.798-4.895 0.763-0.17-0.028-0.092-0.509 0.064-0.678s1.794-1.201 1.794-1.201l-0.007-0.049-0.078-0.332 2.96-0.445c0.021 0.12 0.071 0.36 0.071 0.389 0 0.007 0 0.014 0 0.028 0.099 0.805 0.155 1.476 0.092 1.526z"></path>
<path fill="#a6a6a6" style="fill: var(--color11, #a6a6a6)" d="M20.387 28.334c0.085 0.014 1.328-0.148 2.543-0.332 0.247-0.035 0.487-0.078 0.721-0.113 0.862-0.134 1.575-0.268 1.639-0.318s0.007-0.706-0.085-1.498c0-0.014 0-0.021-0.007-0.035 0-0.007 0-0.014 0-0.028l-2.953 0.389 0.007 0.049c0 0-1.639 1.031-1.794 1.201-0.162 0.177-0.24 0.657-0.071 0.685z"></path>
<path fill="#37474f" style="fill: var(--color12, #37474f)" d="M21.8 25.897l3.44-0.473c0 0-0.855-5.863-0.826-5.997 0.035-0.177 2.049-8.399 2.049-8.399h-2.819c0 0-2.317 7.629-2.409 8.364-0.155 1.187 0.565 6.506 0.565 6.506z"></path>
<path fill="#263238" style="fill: var(--color5, #263238)" d="M25.812 11.656c-0.071 0.205-0.127 0.41-0.191 0.607-0.064 0.205-0.12 0.41-0.177 0.615-0.12 0.403-0.233 0.812-0.346 1.215-0.233 0.819-0.452 1.639-0.671 2.465-0.106 0.41-0.212 0.812-0.318 1.222s-0.219 0.819-0.311 1.229c-0.042 0.198-0.071 0.389-0.064 0.593 0.014 0.205 0.049 0.403 0.085 0.608 0.071 0.417 0.134 0.841 0.205 1.257 0.134 0.848 0.283 1.695 0.424 2.543 0.021 0.106 0.035 0.205 0.056 0.311 0 0.007 0.014 0.007 0.014 0-0.113-0.841-0.254-1.681-0.389-2.522-0.064-0.417-0.134-0.826-0.198-1.243-0.035-0.219-0.071-0.431-0.106-0.65-0.028-0.205-0.049-0.417-0.021-0.622s0.085-0.403 0.134-0.6c0.049-0.205 0.099-0.403 0.155-0.608 0.106-0.41 0.212-0.819 0.318-1.222 0.212-0.819 0.438-1.639 0.657-2.451 0.226-0.812 0.452-1.625 0.678-2.437 0.028-0.099 0.056-0.198 0.085-0.304-0.014-0.007-0.021-0.014-0.021-0.007z"></path>
<path fill="#f7a9a0" style="fill: var(--color10, #f7a9a0)" d="M23.332 29.104c0.162 0.049 4.782-0.035 4.952-0.148 0.064-0.042 0.092-0.713 0.106-1.533 0-0.007 0-0.014 0-0.028 0-0.17-0.092-2.981-0.092-2.981l-3.016 0.049 0.134 2.96v0.049c0 0-1.752 0.826-1.928 0.968-0.184 0.148-0.318 0.615-0.155 0.664z"></path>
<path fill="#ffc727" style="fill: var(--color8, #ffc727)" d="M28.397 27.076c0 0.106 0 0.219 0 0.325v0.028c-0.007 0.812-0.035 1.491-0.106 1.533-0.17 0.113-4.789 0.198-4.952 0.148s-0.028-0.516 0.148-0.664c0.177-0.148 1.928-0.968 1.928-0.968v-0.049l-0.014-0.318c0.53-0.014 2.056-0.028 2.995-0.035z"></path>
<path fill="#a6a6a6" style="fill: var(--color11, #a6a6a6)" d="M23.332 29.104c0.162 0.049 4.782-0.035 4.952-0.148 0.064-0.042 0.092-0.713 0.106-1.533 0-0.007 0-0.014 0-0.028l-2.981 0.021v0.049c0 0-1.752 0.826-1.928 0.968-0.177 0.155-0.311 0.622-0.148 0.671z"></path>
<path fill="#37474f" style="fill: var(--color12, #37474f)" d="M23.721 11.027c0 0 0.064 1.349 0.374 2.416 0.021 0.092 0.049 0.177 0.078 0.261 0 0 0.12 0 0.615 0.297l0.41 12.92 3.327-0.035c0 0-0.53-6.845-0.53-7.283 0.007-0.706-0.381-5.482-0.339-5.602 0.41-1.236-0.268-2.974-0.268-2.974h-3.666z"></path>
<path fill="#263238" style="fill: var(--color5, #263238)" d="M25.106 20.902c-0.042-1.483-0.092-2.96-0.148-4.443-0.035-0.834-0.071-1.667-0.12-2.508 0-0.028-0.049-0.028-0.042 0 0.035 1.49 0.092 2.974 0.141 4.464 0.049 1.483 0.099 2.96 0.148 4.443 0.028 0.834 0.056 1.667 0.092 2.508 0 0.014 0.021 0.014 0.021 0-0.014-1.491-0.049-2.974-0.092-4.464z"></path>
<path fill="#263238" style="fill: var(--color5, #263238)" d="M27.705 22.972c-0.071-0.968-0.141-1.943-0.219-2.91-0.071-0.968-0.141-1.943-0.219-2.91-0.035-0.487-0.071-0.968-0.106-1.455-0.021-0.24-0.035-0.487-0.056-0.728s-0.049-0.48-0.042-0.721c0.007-0.261 0.12-0.494 0.184-0.749 0.056-0.24 0.078-0.487 0.078-0.728-0.007-0.509-0.12-1.003-0.226-1.498-0.007-0.028-0.049-0.014-0.042 0.014 0.106 0.452 0.205 0.911 0.226 1.377 0.007 0.233 0 0.466-0.049 0.692-0.042 0.219-0.134 0.424-0.184 0.643-0.056 0.226-0.021 0.452-0.007 0.685 0.021 0.24 0.035 0.487 0.049 0.728 0.035 0.473 0.071 0.954 0.106 1.427 0.141 1.936 0.283 3.864 0.438 5.8 0.085 1.088 0.155 2.176 0.261 3.264 0 0.007 0.014 0.007 0.014 0-0.056-0.989-0.134-1.964-0.205-2.932z"></path>
<path fill="#263238" style="fill: var(--color5, #263238)" d="M27.027 12.489c-0.056-0.021-0.12-0.028-0.177-0.042-0.064-0.014-0.12-0.035-0.177-0.064-0.106-0.049-0.219-0.113-0.311-0.184-0.099-0.078-0.155-0.177-0.198-0.29-0.028-0.056-0.049-0.12-0.071-0.184-0.014-0.028-0.021-0.056-0.035-0.092-0.007-0.014-0.035-0.078-0.042-0.092h0.007v-0.007c-0.007-0.007-0.007-0.007-0.014-0.007 0 0-0.007 0-0.007 0.007-0.014 0.021 0 0.042 0.007 0.064 0.007 0.042 0.021 0.078 0.028 0.12 0.021 0.071 0.035 0.141 0.056 0.205 0.042 0.127 0.099 0.247 0.198 0.332s0.219 0.155 0.346 0.198c0.064 0.021 0.127 0.042 0.198 0.056 0.064 0.007 0.127 0.021 0.191 0.014 0.007-0.014 0.007-0.028 0-0.035z"></path>
<path fill="#263238" style="fill: var(--color5, #263238)" d="M24.35 13.238c-0.007-0.113-0.014-0.233-0.028-0.346-0.021-0.261-0.049-0.53-0.099-0.791-0.007-0.021-0.035-0.014-0.028 0.007 0.021 0.205 0.042 0.41 0.064 0.615s0.042 0.41 0.049 0.615c0 0.064 0 0.17-0.078 0.184-0.099 0.021-0.148-0.113-0.177-0.184-0.064-0.184-0.099-0.374-0.127-0.558-0.035-0.219-0.049-0.438-0.071-0.65 0-0.007-0.014-0.007-0.014 0 0 0.431 0.007 0.883 0.162 1.293 0.028 0.078 0.085 0.162 0.177 0.17 0 0 0 0 0.007 0v0.007c0 0.014 0.007 0.021 0.007 0.035 0 0.007 0.007 0.021 0.007 0.028 0.007 0.021 0.007 0.042 0.014 0.064s0.028 0.014 0.028-0.007c0.007 0 0.007-0.007 0.007-0.014 0-0.042-0.014-0.085-0.028-0.12 0.049-0.007 0.092-0.042 0.113-0.092 0.035-0.085 0.021-0.177 0.014-0.254z"></path>
<path fill="#263238" style="fill: var(--color5, #263238)" d="M24.004 9.275c0.198 0.155 0.389 0.268 0.579 0.36-0.311-0.53-0.268-1.724-0.226-1.554 0.184 0.812 0.692 1.702 0.89 1.752 0.523 0.071 0.996-0.071 1.392-0.297-0.403-0.6-0.389-1.808-0.36-1.738 0.297 0.791 0.911 1.25 1.017 1.25 0.396-0.374 0.6-0.749 0.544-0.791-0.41-0.276-0.756-0.989-1.067-1.745-0.311-0.742-0.466-1.455-0.904-2.119-0.396-0.607-1.194-0.721-1.646-0.41-1.18 0.819-0.473 5.1-0.219 5.291z"></path>
<path fill="#263238" style="fill: var(--color5, #263238)" d="M25.233 4.027c0.325 0.078 0.6 0.374 0.77 0.657 0.226 0.367 0.381 0.784 0.565 1.18 0.374 0.77 0.841 1.476 1.427 2.098 0.014 0.014-0.007 0.035-0.021 0.021-0.636-0.48-1.074-1.166-1.427-1.872-0.184-0.36-0.325-0.742-0.502-1.102-0.092-0.198-0.205-0.396-0.346-0.565-0.141-0.162-0.304-0.261-0.487-0.353-0.028-0.028-0.014-0.078 0.021-0.064z"></path>
<path fill="#263238" style="fill: var(--color5, #263238)" d="M25.551 15.576h-0.17c0-0.007 0-0.473 0-0.947 0.007-0.516 0.438-0.841 0.848-0.862 0.311-0.014 0.692 0.148 0.756 0.657 0.064 0.551 0.078 0.812 0.078 0.819l-0.17 0.007c0 0-0.014-0.268-0.078-0.812-0.042-0.396-0.325-0.523-0.572-0.509-0.339 0.021-0.685 0.283-0.692 0.692 0 0.48 0 0.947 0 0.954z"></path>
<path fill="#fff" style="fill: var(--color4, #fff)" d="M28.306 19.567c0.085-0.085 0.17-0.162 0.261-0.247 0.085-0.078 0.177-0.155 0.268-0.233l0.014-0.007 0.014 0.007c0.092 0.042 0.177 0.092 0.268 0.141 0.085 0.049 0.177 0.099 0.261 0.148-0.092-0.035-0.184-0.078-0.276-0.113-0.092-0.042-0.184-0.085-0.268-0.127h0.028c-0.092 0.078-0.184 0.155-0.276 0.226-0.106 0.064-0.198 0.134-0.297 0.205z"></path>
<path fill="#fff" style="fill: var(--color4, #fff)" d="M28.849 19.108c-0.078-0.297-0.141-0.593-0.212-0.897-0.071-0.297-0.134-0.6-0.198-0.897-0.064-0.304-0.127-0.6-0.184-0.904l-0.092-0.452c-0.028-0.148-0.056-0.304-0.085-0.452 0.035 0.148 0.071 0.297 0.106 0.445l0.106 0.445c0.071 0.297 0.134 0.6 0.198 0.897 0.064 0.304 0.127 0.6 0.184 0.904 0.064 0.311 0.127 0.608 0.177 0.911z"></path>
<path fill="#263238" style="fill: var(--color5, #263238)" d="M25.339 15.626l-0.17-0.035c0-0.007 0.099-0.473 0.205-0.94 0.113-0.509 0.615-0.742 1.031-0.678 0.311 0.049 0.657 0.297 0.608 0.819-0.056 0.558-0.099 0.819-0.099 0.834l-0.17-0.028c0 0 0.042-0.268 0.099-0.819 0.042-0.403-0.212-0.586-0.459-0.629-0.339-0.056-0.742 0.134-0.834 0.544-0.113 0.466-0.212 0.925-0.212 0.932z"></path>
<path fill="#fff" style="fill: var(--color4, #fff)" d="M27.578 20.747c0.113-0.078 0.226-0.155 0.346-0.226 0.113-0.071 0.233-0.141 0.353-0.212l0.014-0.007 0.014 0.014c0.092 0.071 0.184 0.141 0.276 0.212s0.177 0.141 0.268 0.219c-0.099-0.056-0.198-0.12-0.29-0.191-0.099-0.064-0.191-0.134-0.283-0.198h0.028c-0.12 0.071-0.24 0.134-0.36 0.198-0.12 0.071-0.24 0.134-0.367 0.191z"></path>
<path fill="#fff" style="fill: var(--color4, #fff)" d="M28.291 20.337c-0.021-0.353-0.042-0.706-0.056-1.060s-0.028-0.706-0.042-1.060c-0.007-0.353-0.021-0.706-0.028-1.060l-0.007-0.53c0-0.177-0.007-0.353-0.007-0.53 0.014 0.177 0.021 0.353 0.035 0.53l0.028 0.53c0.014 0.353 0.028 0.706 0.042 1.060 0.007 0.353 0.021 0.706 0.028 1.060 0 0.353 0.007 0.706 0.007 1.060z"></path>
<path fill="#a6a6a6" style="fill: var(--color11, #a6a6a6)" d="M21.023 5.164l0.657 2.042c0.028 0.056 0 0.113-0.064 0.113l-1.067 0.071c-0.056 0.007-0.127-0.042-0.155-0.099l-0.657-2.042c-0.028-0.056 0-0.113 0.064-0.113l1.067-0.071c0.056 0 0.127 0.042 0.155 0.099z"></path>
<path fill="#dbdbdb" style="fill: var(--color13, #dbdbdb)" d="M20.895 5.171l0.657 2.042c0.028 0.056 0 0.113-0.064 0.113l-1.067 0.071c-0.056 0.007-0.127-0.042-0.155-0.099l-0.657-2.042c-0.028-0.056 0-0.113 0.064-0.113l1.067-0.071c0.056-0.007 0.127 0.042 0.155 0.099z"></path>
<path fill="#f7a9a0" style="fill: var(--color10, #f7a9a0)" d="M24.675 8.088c-0.509 1.335-1.752 3.108-2.31 3.151-0.268 0.021-0.742 0.12-1.116-0.162-0.812-0.615-1.547-1.851-1.731-2.578-0.064-0.254 1.166-0.918 1.37-0.721 0.473 0.466 1.060 1.406 1.137 1.392 0.29-0.042 1.342-1.060 2.084-1.78 0.883-0.855 0.763 0.162 0.565 0.699z"></path>
<path fill="#f7a9a0" style="fill: var(--color10, #f7a9a0)" d="M19.596 8.724c0 0-0.29-0.721-0.247-1.307 0.028-0.403 0.198-1.279 1.286-1.815 0.261-0.127 0.713-0.127 0.367 0.233-0.247 0.254-0.48 0.346-0.593 0.516 0 0 0.579 0.071 0.699 0.339 0.049 0.12 0.184 0.445 0.254 0.713 0 0-0.056 0.028-0.127 0.056 0 0 0.085 0.254-0.078 0.636l-1.561 0.629z"></path>
<path fill="#f7a9a0" style="fill: var(--color10, #f7a9a0)" d="M19.44 7.036c0.155-0.148 0.48-0.459 0.834-0.622 0.396-0.177 1.208-0.417 1.335-0.12 0.092 0.212-0.205 0.332-0.205 0.332s0.353-0.028 0.396 0.184c0.042 0.191-0.198 0.268-0.198 0.268s0.219 0.021 0.219 0.212c0 0.233-0.459 0.155-0.657 0.389-0.042 0.064-1.724-0.643-1.724-0.643z"></path>
<path fill="#ffc727" style="fill: var(--color8, #ffc727)" d="M21.312 8.23l-1.476 1.71c0 0 1.264 1.236 1.674 1.335s0.721 0.035 1.010-0.042c0.29-0.085 1.702-1.724 2.169-3.059 0.466-1.342-0.035-1.406-0.826-0.593s-1.773 1.611-1.823 1.554c-0.049-0.064-0.728-0.904-0.728-0.904z"></path>
<path fill="#000" style="fill: var(--color14, #000)" opacity="0.1" d="M21.312 8.23l-1.476 1.71c0 0 1.264 1.236 1.674 1.335s0.721 0.035 1.010-0.042c0.29-0.085 1.702-1.724 2.169-3.059 0.466-1.342-0.035-1.406-0.826-0.593s-1.773 1.611-1.823 1.554c-0.049-0.064-0.728-0.904-0.728-0.904z"></path>
<path fill="#263238" style="fill: var(--color5, #263238)" d="M21.581 8.703c-0.064 0.056-0.551 0.607-0.664 0.735-0.106 0.12-0.53 0.636-0.636 0.763-0.007 0.007 0 0.014 0.007 0.007 0.056-0.064 0.12-0.12 0.177-0.184s0.389-0.438 0.494-0.558c0.106-0.127 0.586-0.692 0.629-0.756 0.007-0.007 0-0.014-0.007-0.007z"></path>
<path fill="#ffc727" style="fill: var(--color8, #ffc727)" d="M23.325 10.434l-0.276 2.373c0 0 3.85-0.056 4.804-0.155 0 0-0.911-4.394-1.971-5.482-0.53-0.544-1.13-0.48-1.505-0.085-0.092 0.099-1.208 1.674-1.314 2.26-0.092 0.53 0.261 1.088 0.261 1.088z"></path>
<path fill="#263238" style="fill: var(--color5, #263238)" d="M23.17 10.052c-0.042-0.134-0.071-0.275-0.071-0.417 0-0.29 0.085-0.572 0.212-0.826 0.071-0.148 0.155-0.29 0.226-0.438 0-0.007-0.007-0.007-0.007 0-0.071 0.099-0.127 0.205-0.184 0.304 0-0.007 0-0.007 0.007-0.014 0.014-0.056 0.035-0.113 0.056-0.17 0-0.007-0.007-0.007-0.007-0.007-0.021 0.056-0.042 0.106-0.064 0.162-0.014 0.035-0.021 0.071-0.028 0.106-0.071 0.127-0.127 0.261-0.177 0.403-0.092 0.275-0.106 0.572-0.021 0.855 0.021 0.071 0.056 0.141 0.085 0.212 0.035 0.078 0.085 0.148 0.127 0.219 0 0.007 0.014 0 0.007-0.007-0.071-0.113-0.12-0.247-0.162-0.381z"></path>
<path fill="#f7a9a0" style="fill: var(--color10, #f7a9a0)" d="M25.254 7.106c-0.028 0.071-0.48 0.487-0.812 0.41-0.113-0.028 0.007-0.629 0.007-0.629v-0.049l-0.021-0.65 0.826-0.332 0.12-0.042c0 0-0.007 0.177-0.014 0.403 0 0.007 0 0.021 0 0.028 0 0.014 0 0.021 0 0.035 0 0.035 0 0.071-0.007 0.099 0 0.028 0 0.049-0.007 0.078 0 0.028-0.007 0.056-0.007 0.078-0.021 0.276-0.071 0.544-0.085 0.572z"></path>
<path fill="#263238" style="fill: var(--color5, #263238)" d="M25.353 6.209c-0.276 0.466-0.713 0.593-0.904 0.629l-0.021-0.65 0.826-0.332 0.12-0.042c-0.007-0.007-0.007 0.177-0.021 0.396z"></path>
<path fill="#263238" style="fill: var(--color5, #263238)" d="M23.961 4.945c0.028 0 0.049 0 0.078-0.007 0.028 0 0.056 0 0.078-0.021 0.014-0.007 0.014-0.035 0.007-0.049-0.021-0.035-0.056-0.035-0.099-0.035s-0.071 0.014-0.099 0.042c-0.021 0.021 0 0.071 0.035 0.071z"></path>
<path fill="#263238" style="fill: var(--color5, #263238)" d="M24.71 5.058c-0.028-0.007-0.049-0.014-0.078-0.028s-0.049-0.014-0.071-0.042c-0.007-0.014-0.007-0.035 0.007-0.049 0.028-0.028 0.071-0.021 0.099-0.007 0.035 0.014 0.064 0.028 0.085 0.064 0.028 0.028-0.007 0.071-0.042 0.064z"></path>
<path fill="#263238" style="fill: var(--color5, #263238)" d="M24.646 5.27c0.021 0.014 0.035 0.042 0.064 0.049s0.056-0.014 0.078-0.042h0.007c-0.007 0.049-0.028 0.092-0.085 0.099-0.049 0-0.078-0.042-0.085-0.099 0.007 0 0.014-0.014 0.021-0.007z"></path>
<path fill="#263238" style="fill: var(--color5, #263238)" d="M23.961 5.171c-0.021 0.007-0.042 0.028-0.071 0.028s-0.042-0.035-0.056-0.064h-0.007c-0.007 0.049 0 0.099 0.042 0.113s0.078-0.021 0.099-0.064c0.007-0.007 0-0.021-0.007-0.014z"></path>
<path fill="#263238" style="fill: var(--color5, #263238)" d="M24.42 5.941c-0.021 0.014-0.042 0.042-0.071 0.042s-0.056-0.014-0.085-0.028c0 0-0.007 0-0.007 0.007 0.021 0.028 0.056 0.056 0.099 0.049 0.035 0 0.056-0.035 0.064-0.064 0.007-0.007 0-0.014 0-0.007z"></path>
<path fill="#263238" style="fill: var(--color5, #263238)" d="M24.131 5.616c0 0-0.028 0.113-0.042 0.17 0 0.007 0.014 0.007 0.028 0.014 0.092 0.028 0.198 0.007 0.261-0.064 0.007-0.007 0-0.014-0.007-0.007-0.078 0.042-0.162 0.049-0.247 0.035 0-0.014 0.064-0.191 0.049-0.198-0.028-0.007-0.092 0.007-0.127 0.014 0.056-0.24 0.155-0.466 0.212-0.706 0-0.007-0.007-0.014-0.014-0.007-0.12 0.233-0.191 0.502-0.261 0.749 0.007 0.035 0.127 0.007 0.148 0z"></path>
<path fill="#263238" style="fill: var(--color5, #263238)" d="M25.565 5.566c-0.283-0.021-0.332-0.89-0.332-0.996 0 0.071-0.007 0.424-0.035 0.438-0.007 0-0.035-0.007-0.085-0.021 0-0.042 0-0.085-0.007-0.127 0-0.021-0.007 0.042-0.021 0.12-0.014-0.007-0.035-0.014-0.049-0.014 0.007-0.078 0.007-0.17-0.014-0.268-0.007-0.035-0.021 0.12-0.056 0.247-0.191-0.056-0.466-0.141-0.728-0.155-0.071-0.007-0.127-0.007-0.184-0.007 0.007-0.106 0.021-0.219 0.014-0.191-0.028 0.071-0.042 0.134-0.049 0.191-0.028 0-0.056 0-0.078 0 0-0.148 0.078-0.381 0.049-0.346-0.099 0.134-0.141 0.283-0.155 0.36-0.099 0.014-0.127 0.035-0.134 0.007 0-0.049 0.071-0.459 0.403-0.749 0.36-0.318 1.067-0.374 1.441 0.148 0 0 0.318 0.226 0.353 0.565 0.028 0.346-0.17 0.812-0.332 0.798z"></path>
<path fill="#263238" style="fill: var(--color5, #263238)" d="M25.833 5.524c-0.134 0.049-0.212 0.17-0.268 0.297 0.042-0.049 0.099-0.071 0.162-0.021 0 0 0 0.007-0.007 0.007-0.056-0.014-0.092-0.007-0.134 0.035-0.028 0.028-0.049 0.071-0.071 0.106-0.007 0.014-0.028 0.007-0.021-0.007 0.007-0.177 0.155-0.41 0.339-0.417z"></path>
<path fill="#f7a9a0" style="fill: var(--color10, #f7a9a0)" d="M26.087 7.17c1.321 1.081 2.388 2.734 2.444 3.151 0.064 0.459-0.099 2.133-0.537 2.981-0.113 0.226-1.823-0.798-1.709-1.038 0.219-0.473 0.537-1.759 0.494-2.013-0.042-0.24-0.713-1.667-1.18-2.416-0.417-0.692-0.127-1.166 0.487-0.664z"></path>
<path fill="#f7a9a0" style="fill: var(--color10, #f7a9a0)" d="M24.978 14.298c0.113 0.177 0.325 0.12 0.325 0.12s0 0.17 0.106 0.283c0.127 0.134 0.389-0.007 0.389-0.007s0.035 0.17 0.162 0.283c0.134 0.113 0.417 0.014 0.417 0.014s0.12 0.141 0.297 0.155c0.311 0.028 0.593-0.353 0.777-0.586 0.184-0.24 0.48-1.088 0.551-1.243l-1.519-1.187c0 0-1.123 0.834-1.3 1.144-0.141 0.254-0.332 0.826-0.205 1.024z"></path>
<path fill="#263238" style="fill: var(--color5, #263238)" d="M25.784 14.665c0.021-0.071 0.071-0.134 0.106-0.198 0.042-0.064 0.085-0.134 0.134-0.198 0.092-0.127 0.184-0.261 0.283-0.381 0.007-0.007 0.014 0 0.007 0.007-0.092 0.127-0.177 0.261-0.261 0.396-0.042 0.064-0.085 0.134-0.127 0.205-0.035 0.064-0.071 0.134-0.127 0.184-0.007 0.007-0.021 0-0.014-0.014z"></path>
<path fill="#263238" style="fill: var(--color5, #263238)" d="M26.384 14.976c0.014-0.064 0.071-0.12 0.106-0.17 0.042-0.056 0.085-0.12 0.127-0.177 0.085-0.12 0.17-0.233 0.247-0.36 0.007-0.007 0.014 0 0.007 0.007-0.078 0.12-0.155 0.247-0.24 0.367-0.042 0.064-0.078 0.12-0.12 0.177-0.035 0.056-0.071 0.12-0.127 0.155z"></path>
<path fill="#ffc727" style="fill: var(--color8, #ffc727)" d="M25.452 7.693c0.254 0.721 1.286 2.43 1.279 2.593s-0.509 1.879-0.509 1.879l2.041 1.236c0 0 0.452-2.338 0.283-3.151-0.127-0.622-1.568-2.437-2.268-2.995-0.699-0.551-1.151-0.48-0.826 0.438z"></path>
<path fill="#000" style="fill: var(--color14, #000)" opacity="0.1" d="M25.452 7.693c0.254 0.721 1.286 2.43 1.279 2.593s-0.509 1.879-0.509 1.879l2.041 1.236c0 0 0.452-2.338 0.283-3.151-0.127-0.622-1.568-2.437-2.268-2.995-0.699-0.551-1.151-0.48-0.826 0.438z"></path>
<path fill="#263238" style="fill: var(--color5, #263238)" d="M26.737 10.186c-0.021-0.12-0.092-0.233-0.148-0.339-0.127-0.24-0.254-0.48-0.396-0.713-0.078-0.127-0.381-0.629-0.466-0.791-0.007-0.014-0.028 0-0.021 0.014 0.049 0.099 0.191 0.353 0.297 0.537-0.014-0.021-0.028-0.035-0.049-0.056-0.028-0.035-0.064-0.071-0.092-0.099-0.035-0.035-0.078-0.064-0.106-0.106-0.007-0.007-0.014 0-0.007 0.007 0.056 0.078 0.12 0.141 0.184 0.212 0.028 0.035 0.064 0.071 0.092 0.106 0.021 0.021 0.042 0.049 0.064 0.071 0.007 0.007 0.007 0.014 0.014 0.021 0.134 0.233 0.254 0.466 0.381 0.699 0.064 0.113 0.134 0.226 0.177 0.346 0.021 0.056 0.035 0.113 0.035 0.177-0.007 0.071-0.028 0.141-0.042 0.205-0.071 0.254-0.134 0.509-0.205 0.77-0.035 0.148-0.078 0.297-0.113 0.445s-0.078 0.297-0.099 0.445c0 0.007 0.014 0.021 0.021 0.007 0.049-0.127 0.085-0.261 0.12-0.389 0.035-0.134 0.078-0.268 0.113-0.396 0.071-0.268 0.141-0.537 0.212-0.812 0.014-0.113 0.056-0.233 0.035-0.36z"></path>
<path fill="#ffc727" style="fill: var(--color8, #ffc727)" d="M6.902 23.255h3.115c0.41 0 0.742-0.332 0.742-0.742v-5.835c0-0.212 0.148-0.749 0.791-0.749h-3.913c-0.41 0-0.742 0.332-0.742 0.742v6.584h0.007z"></path>
<path fill="#000" style="fill: var(--color14, #000)" opacity="0.1" d="M6.902 23.255h3.115c0.41 0 0.742-0.332 0.742-0.742v-5.835c0-0.212 0.148-0.749 0.791-0.749h-3.913c-0.41 0-0.742 0.332-0.742 0.742v6.584h0.007z"></path>
<path fill="#ffc727" style="fill: var(--color8, #ffc727)" d="M3.892 20.789v7.043h2.359v0.007c0 0.41 0.325 0.742 0.735 0.749h0.028c0.028 0 0.049 0 0.078-0.007l0.141-0.028c0.035-0.014 0.071-0.028 0.099-0.042 0.014-0.007 0.035-0.014 0.049-0.028 0.007-0.007 0.014-0.007 0.021-0.014 0.021-0.014 0.042-0.028 0.064-0.042l0.007-0.007c0.014-0.014 0.028-0.021 0.042-0.035 0.007-0.007 0.014-0.014 0.021-0.021 0.085-0.085 0.148-0.191 0.184-0.304v-0.007c0.007-0.021 0.007-0.035 0.014-0.056s0.007-0.049 0.014-0.071c0-0.014 0-0.021 0-0.035 0-0.007 0-0.007 0-0.014 0-0.014 0-0.028 0-0.042v-7.050c0-0.212 0.148-0.749 0.791-0.749h-3.906c-0.41 0.014-0.742 0.346-0.742 0.756z"></path>
<path fill="#ffc727" style="fill: var(--color8, #ffc727)" d="M11.514 15.929c-0.417 0-0.749 0.339-0.749 0.749v1.413h1.498v-1.413c0-0.41-0.339-0.749-0.749-0.749z"></path>
<path fill="#000" style="fill: var(--color14, #000)" opacity="0.2" d="M11.514 15.929c-0.417 0-0.749 0.339-0.749 0.749v1.413h1.498v-1.413c0-0.41-0.339-0.749-0.749-0.749z"></path>
<path fill="#ffc727" style="fill: var(--color8, #ffc727)" d="M7.749 20.796v2.465h2.232c-0.403-0.007-0.735-0.339-0.735-0.749v-1.717c0-0.417-0.339-0.749-0.749-0.749-0.205 0-0.396 0.085-0.53 0.219s-0.219 0.318-0.219 0.53z"></path>
<path fill="#000" style="fill: var(--color14, #000)" opacity="0.2" d="M7.749 20.796v2.465h2.232c-0.403-0.007-0.735-0.339-0.735-0.749v-1.717c0-0.417-0.339-0.749-0.749-0.749-0.205 0-0.396 0.085-0.53 0.219s-0.219 0.318-0.219 0.53z"></path>
<path fill="#ffc727" style="fill: var(--color8, #ffc727)" d="M2.797 27.832v0.007c0 0.41 0.325 0.742 0.735 0.749h3.454c-0.403-0.007-0.735-0.339-0.735-0.749v-0.007h-3.454z"></path>
<path fill="#000" style="fill: var(--color14, #000)" opacity="0.2" d="M2.797 27.832v0.007c0 0.41 0.325 0.742 0.735 0.749h3.454c-0.403-0.007-0.735-0.339-0.735-0.749v-0.007h-3.454z"></path>
</symbol>
<symbol id="icon-Home" viewBox="0 0 32 32">
<path fill="#4a56e2" style="fill: var(--color7, #4a56e2)" d="M3.556 0c-1.964 0-3.556 1.592-3.556 3.556v24.889c0 1.964 1.592 3.556 3.556 3.556h24.889c1.964 0 3.556-1.592 3.556-3.556v-24.889c0-1.964-1.592-3.556-3.556-3.556h-24.889zM13.867 17.987v6.902h-5.333v-9.203h-3.2l10.667-10.353 10.667 10.353h-3.2v9.203h-5.333v-6.902h-4.267z"></path>
</symbol>
<symbol id="icon-Rectangle-3" viewBox="0 0 32 32">
<path fill="#fff" style="fill: var(--color4, #fff)" opacity="0.4" d="M0 0h32v32h-32v-32z"></path>
</symbol>
<symbol id="icon-Statistic" viewBox="0 0 32 32">
<path fill="#6e78e8" style="fill: var(--color15, #6e78e8)" d="M3.556 0h24.889c1.964 0 3.556 1.592 3.556 3.556v24.889c0 1.964-1.592 3.556-3.556 3.556h-24.889c-1.964 0-3.556-1.592-3.556-3.556v-24.889c0-1.964 1.592-3.556 3.556-3.556zM26.182 13.63c1.244 0 2.263-1.067 2.263-2.37s-1.018-2.37-2.263-2.37c-1.244 0-2.263 1.067-2.263 2.37 0 0.213 0.023 0.415 0.079 0.604l-4.016 4.219c-0.181-0.059-0.385-0.083-0.588-0.083s-0.407 0.024-0.588 0.083l-2.885-3.022c0.057-0.19 0.079-0.403 0.079-0.616 0-1.304-1.018-2.37-2.263-2.37s-2.263 1.067-2.263 2.37c0 0.213 0.023 0.427 0.079 0.616l-5.159 5.393c-0.181-0.059-0.373-0.083-0.577-0.083-1.244 0-2.263 1.067-2.263 2.37s1.018 2.37 2.263 2.37 2.263-1.067 2.263-2.37c0-0.213-0.023-0.415-0.079-0.604l5.147-5.404c0.181 0.059 0.385 0.083 0.588 0.083s0.407-0.024 0.588-0.083l2.885 3.022c-0.057 0.19-0.079 0.403-0.079 0.616 0 1.304 1.018 2.37 2.263 2.37s2.263-1.067 2.263-2.37c0-0.213-0.023-0.427-0.079-0.616l4.027-4.207c0.181 0.059 0.373 0.083 0.577 0.083z"></path>
</symbol>
<symbol id="icon-Wallet" viewBox="0 0 32 32">
<path fill="#24cca7" style="fill: var(--color3, #24cca7)" d="M3.755 7.619l16.211-4.537-0.859-1.779c-0.562-1.157-1.932-1.634-3.060-1.058l-14.513 7.375h2.219z"></path>
<path fill="#24cca7" style="fill: var(--color3, #24cca7)" d="M24.813 3.048c-0.195 0-0.391 0.029-0.586 0.087l-15.012 4.484h18.431l-0.693-2.779c-0.266-1.083-1.163-1.793-2.14-1.793z"></path>
<path fill="#4a56e2" style="fill: var(--color7, #4a56e2)" d="M28.36 8.573h-26.559c-0.568 0-1.074 0.26-1.405 0.67-0.151 0.189-0.266 0.406-0.331 0.645-0.040 0.15-0.065 0.307-0.065 0.467v19.862c0 0.984 0.805 1.783 1.797 1.783h26.559c0.992 0 1.797-0.799 1.797-1.783v-4.973h-10.662c-1.685 0-3.054-1.358-3.054-3.030v-3.964c0-0.82 0.331-1.565 0.866-2.111 0.474-0.485 1.11-0.813 1.822-0.895 0.119-0.014 0.241-0.021 0.363-0.021h10.666v-4.867c0.004-0.984-0.801-1.783-1.793-1.783z"></path>
<path fill="#4a56e2" style="fill: var(--color7, #4a56e2)" d="M31.414 16.926c-0.18-0.164-0.392-0.289-0.629-0.371-0.183-0.061-0.377-0.096-0.582-0.096h-10.712c-0.992 0-1.797 0.799-1.797 1.783v3.968c0 0.984 0.805 1.783 1.797 1.783h10.712c0.205 0 0.399-0.036 0.582-0.096 0.237-0.078 0.449-0.207 0.629-0.371 0.359-0.324 0.586-0.795 0.586-1.316v-3.968c0-0.52-0.226-0.991-0.586-1.316zM23.243 20.581c0 0.492-0.402 0.891-0.898 0.891h-0.596c-0.496 0-0.898-0.399-0.898-0.891v-0.592c0-0.285 0.133-0.538 0.345-0.699 0.155-0.118 0.345-0.193 0.553-0.193h0.596c0.496 0 0.898 0.399 0.898 0.891v0.592z"></path>
</symbol>
</defs>
</svg>
