<svg width="19" height="18" fill="none" xmlns="http://www.w3.org/2000/svg"><g clip-path="url(#clip0)"><path d="M11.779 13.07h1.405v2.812a2.11 2.11 0 01-2.108 2.108H2.608A2.11 2.11 0 01.5 15.882V2.108A2.11 2.11 0 012.608 0h8.468a2.11 2.11 0 012.108 2.108V4.92H11.78V2.11a.703.703 0 00-.703-.704H2.608a.704.704 0 00-.703.703v13.774c0 .387.316.702.703.702h8.468a.703.703 0 00.703-.702V13.07zm3.408-7.388l-.994.994 1.617 1.616H6.72v1.406h9.09l-1.617 1.616.994.994L18.5 8.995l-3.313-3.313z" fill="#BDBDBD"/></g><defs><clipPath id="clip0"><path fill="#fff" transform="translate(.5)" d="M0 0h18v18H0z"/></clipPath></defs></svg>